<svg width="313" height="49" viewBox="0 0 313 49" fill="none" xmlns="http://www.w3.org/2000/svg">
<mask id="mask0_252_541" style="mask-type:luminance" maskUnits="userSpaceOnUse" x="68" y="0" width="120" height="46">
<path d="M68.7571 0.383057H187.59V45.0763H68.7571V0.383057Z" fill="white"/>
</mask>
<g mask="url(#mask0_252_541)">
<path d="M154.861 39.2902C150.188 39.2097 145.54 39.3583 140.954 40.4041C139.06 40.8373 137.203 41.3943 135.409 42.1369C133.447 42.9476 131.491 43.783 129.572 44.6865C128.737 45.0764 128.05 45.0702 127.22 44.6742C123.556 42.8981 119.849 41.2519 115.838 40.3979C112.849 39.7543 109.835 39.3583 106.777 39.3211C104.19 39.284 101.597 39.185 99.0161 39.3211C92.8083 39.6491 87.2504 37.7988 82.1629 34.4137C78.8207 32.1982 75.2434 30.5459 71.4556 29.2896C71.1895 29.203 70.9233 29.1101 70.6881 28.974C69.7474 28.4046 69.6174 27.4021 70.4096 26.6595C70.7377 26.3501 71.1647 26.1273 71.567 25.9169C74.7668 24.2893 78.1956 23.3672 81.674 22.6122C83.0294 22.3152 83.0232 22.3214 82.8066 20.9723C82.5157 19.1962 82.1196 17.4263 82.5962 15.6254C82.6642 15.3531 82.7199 15.087 82.8004 14.8209C83.4998 12.5002 84.3168 11.8752 86.7305 12.1042C89.1629 12.3331 91.5891 12.6859 93.9533 13.3233C95.2716 13.6822 95.315 13.6822 95.4573 12.2775C95.5811 11.0831 95.6182 9.88251 95.6492 8.68813C95.6678 7.94552 95.7296 7.20909 95.8968 6.48503C96.2743 4.82652 97.4812 4.43665 98.7314 5.57533C99.307 6.10135 99.895 6.63356 100.396 7.23384C101.331 8.3292 102.581 8.91092 103.831 9.5112C104.388 9.7835 104.822 9.76493 105.001 9.0842C105.744 6.29319 107.644 4.25718 109.463 2.16547C110.256 1.25577 110.8 1.10724 111.908 1.50949C114.471 2.45014 116.959 3.54551 119.372 4.82033C120.53 5.43299 121.539 6.22512 122.411 7.19671C123.111 7.97646 123.173 7.97027 123.934 7.22146C124.825 6.34889 125.636 5.39586 126.304 4.33763C126.731 3.66927 127.276 3.11231 127.827 2.54916C128.242 2.13453 128.607 2.14072 128.997 2.5801C129.486 3.13706 130.086 3.61358 130.457 4.23243C131.157 5.40205 132.147 6.31176 133.007 7.32667C133.546 7.95789 133.762 7.97027 134.35 7.31429C136.021 5.42062 138.188 4.31906 140.459 3.37223C141.913 2.76576 143.362 2.16547 144.798 1.53425C145.837 1.07011 146.661 1.30527 147.385 2.14691C149.192 4.25099 151.086 6.29938 151.847 9.07182C152.045 9.7835 152.435 9.75874 152.986 9.49883C154.249 8.91092 155.474 8.31064 156.415 7.21528C156.978 6.54692 157.615 5.93426 158.302 5.38348C159.392 4.51091 160.45 4.85127 160.883 6.16942C161.063 6.70163 161.075 7.25241 161.112 7.80937C161.199 9.42456 161.286 11.0336 161.391 12.6426C161.459 13.5956 161.564 13.6699 162.505 13.4161C165.142 12.6921 167.84 12.296 170.551 12.0856C172.463 11.9371 173.181 12.5126 173.874 14.3135C174.586 16.1453 174.5 18.0204 174.24 19.914C173.893 22.5008 173.336 22.1419 176.214 22.8288C179.352 23.5838 182.477 24.4254 185.38 25.9231C186.166 26.3253 187.051 26.7028 186.94 27.7982C186.841 28.7821 186.005 29.0792 185.201 29.3515C181.419 30.6201 177.854 32.3034 174.512 34.525C171.349 36.6353 167.914 38.2505 164.12 38.9189C161.651 39.3521 159.157 39.3211 156.662 39.2964C156.062 39.284 155.462 39.2902 154.861 39.2902ZM120.542 32.4333C120.635 32.4086 120.722 32.3838 120.814 32.3591C120.814 31.8578 120.839 31.3565 120.808 30.8553C120.635 27.8601 121.557 25.1866 123.284 22.8103C124.788 20.7433 126.026 18.534 127.121 16.2381C127.295 15.8668 127.499 15.4893 127.746 15.1675C128.223 14.5672 128.563 14.5796 129.089 15.1737C129.461 15.5945 129.684 16.1081 129.925 16.6032C130.971 18.7754 132.128 20.8609 133.558 22.8103C134.889 24.6173 135.749 26.6347 136.009 28.9121C136.151 30.1622 136.096 31.4061 136.083 32.6747C136.3 32.4457 136.448 32.2167 136.56 31.9692C138.02 28.8255 139.277 25.5951 140.849 22.507C141.264 21.6839 141.084 20.8918 140.682 20.1244C139.679 18.2184 138.324 16.5908 136.69 15.2108C134.363 13.2367 132.073 11.2316 130.457 8.58293C130.049 7.91457 129.578 7.27716 129.083 6.67069C128.563 6.02709 128.31 6.03946 127.784 6.67069C127.462 7.06056 127.158 7.48138 126.886 7.9022C125.246 10.3838 123.315 12.5869 121 14.4867C119.1 16.0339 117.423 17.8161 116.234 20.0131C115.708 20.9846 115.634 21.8572 116.173 22.8845C117.46 25.3352 118.524 27.8972 119.601 30.4468C119.886 31.1214 120.22 31.7712 120.542 32.4333ZM108.083 36.5611C107.817 36.3259 107.656 36.165 107.483 36.0288C104.066 33.3802 101.182 30.2117 98.5829 26.7894C97.8897 25.8735 97.116 25.3537 96.002 25.1804C92.9816 24.6977 89.9551 24.5554 86.9038 24.8586C82.9056 25.2609 78.9198 25.7003 75.1877 27.3402C74.9277 27.4578 74.5131 27.3959 74.4883 27.9405C77.9047 29.3205 81.0798 31.1833 84.2301 33.1017C88.3521 35.6142 92.8888 36.6972 97.6916 36.7343C100.737 36.7591 103.782 36.7653 106.827 36.7715C107.186 36.7653 107.557 36.8457 108.083 36.5611ZM149.025 36.6353C149.371 36.8395 149.786 36.7653 150.188 36.7653C153.37 36.7591 156.551 36.7715 159.738 36.7158C164.3 36.6353 168.614 35.5338 172.525 33.176C175.694 31.2699 178.838 29.3453 182.279 27.9591C182.354 27.9343 182.403 27.8353 182.552 27.6744C181.042 27.1484 179.649 26.4491 178.12 26.084C174.425 25.199 170.662 24.8277 166.881 24.6792C164.758 24.5925 162.647 24.8834 160.549 25.2299C159.763 25.3599 159.107 25.6384 158.587 26.3563C155.951 29.9951 152.905 33.2564 149.359 36.035C149.186 36.1712 148.963 36.2826 149.025 36.6353ZM116.878 36.2702C113.697 33.6401 111.735 30.2117 110.07 26.579C109.569 25.4899 109.129 24.3697 108.647 23.2744C107 19.5365 105.044 15.9967 102.47 12.8097C101.368 11.4606 99.9816 10.5942 98.3291 9.89489C98.2177 10.9717 98.1125 11.8814 98.0258 12.7973C97.6607 16.5846 97.933 20.2544 99.9197 23.6519C100.433 24.5368 101.028 25.3475 101.609 26.1706C103.788 29.2463 106.301 31.9878 109.482 34.0609C110.342 34.6179 111.265 35.0449 112.267 35.2677C113.784 35.5895 115.331 35.7999 116.878 36.2702ZM140.112 36.2331C141.35 35.936 142.545 35.608 143.77 35.4224C145.447 35.1625 146.927 34.4508 148.288 33.4483C151.16 31.3565 153.351 28.646 155.511 25.8612C159.058 21.3003 159.472 16.17 158.575 10.7489C158.457 10.0496 158.272 9.97534 157.64 10.291C156.167 11.0274 154.973 12.0856 153.964 13.3852C151.247 16.8755 149.26 20.7681 147.558 24.8277C146.401 27.6001 145.138 30.3231 143.281 32.718C142.322 33.9619 141.127 34.983 140.112 36.2331ZM128.384 18.534C127.709 20.3225 126.521 21.6778 125.469 23.1321C125.122 23.6148 124.782 24.1284 124.559 24.673C122.591 29.4257 122.523 36.5734 127.814 41.5242C128.248 41.9265 128.588 41.9574 128.984 41.5366C130.847 39.5872 132.568 37.545 133.038 34.7602C133.187 33.9 133.391 33.0398 133.484 32.1734C133.799 29.203 133.23 26.381 131.825 23.7571C131.348 22.8721 130.649 22.111 130.024 21.3126C129.38 20.471 129.077 19.4375 128.384 18.534ZM114.173 18.9239C114.372 18.6578 114.483 18.5588 114.532 18.4412C115.504 16.1948 117.002 14.3444 118.76 12.6735C119.632 11.8504 120.449 10.9717 121.272 10.0991C122.077 9.2451 122.071 9.09039 121.322 8.26113C120.387 7.22146 119.31 6.38602 118.06 5.73623C116.123 4.73369 114.019 4.14579 112.044 3.26083C111.444 2.98854 111.097 3.24846 110.782 3.72497C109.884 5.06168 108.944 6.37983 108.065 7.73511C107.693 8.31064 107.384 8.94186 107.118 9.57928C106.654 10.7241 106.715 10.9469 107.755 11.6339C109.395 12.723 110.72 14.0969 111.815 15.7368C112.527 16.795 113.202 17.8966 114.173 18.9239ZM142.675 19.1219C143.727 17.6119 144.637 16.3371 145.516 15.0437C146.172 14.0783 146.945 13.2367 147.874 12.5497C148.356 12.1908 148.852 11.8504 149.334 11.4977C150.176 10.8912 150.219 10.7737 149.848 9.7835C149.724 9.43694 149.563 9.10276 149.39 8.77477C148.443 6.92442 147.001 5.38967 145.992 3.57026C145.726 3.09993 145.324 3.00711 144.81 3.23608C142.712 4.17673 140.49 4.82652 138.46 5.94664C137.358 6.55311 136.368 7.27716 135.52 8.21162C134.722 9.07801 134.697 9.14608 135.557 10.0001C136.702 11.1264 137.76 12.3393 138.924 13.4656C140.515 15.0128 141.684 16.8941 142.675 19.1219ZM96.2743 22.8103C96.3052 22.7236 96.3733 22.6246 96.3548 22.5627C95.7049 20.5267 95.3521 18.4474 95.3273 16.3123C95.3212 15.7801 95.0241 15.446 94.5351 15.3098C93.78 15.0932 93.0312 14.8581 92.2637 14.7219C90.3574 14.3815 88.445 14.0845 86.5387 13.7751C85.4494 13.6018 85.2451 13.7008 85.0409 14.8147C84.7005 16.628 84.4777 18.4536 84.7624 20.3101C85.0285 22.0305 85.0161 22.0491 86.6934 22.0429C89.6952 22.0367 92.6722 22.1914 95.612 22.8659C95.8349 22.9093 96.07 22.9835 96.2743 22.8103ZM160.302 22.8969C161.242 22.9526 161.892 22.6865 162.561 22.5813C165.16 22.1666 167.772 22.0119 170.402 22.0305C171.776 22.0429 171.993 21.8325 172.08 20.4524C172.148 19.4004 172.123 18.336 172.129 17.2777C172.135 16.3495 171.974 15.446 171.758 14.5486C171.609 13.9422 171.281 13.577 170.569 13.707C168.125 14.1464 165.668 14.5363 163.229 15.0128C161.824 15.2912 161.595 15.514 161.502 16.9188C161.378 18.9053 161.143 20.8547 160.302 22.8969ZM107.483 15.6997C108.219 17.2592 108.931 18.6887 109.581 20.143C110.831 22.9093 111.846 25.7807 113.251 28.4851C114.39 30.682 115.882 32.5881 117.72 34.228C117.906 34.3951 118.073 34.6859 118.407 34.525C118.531 34.2713 118.388 34.0733 118.289 33.8753C117.615 32.5076 117.02 31.109 116.569 29.6609C115.021 24.673 112.249 20.4277 108.752 16.6218C108.43 16.2628 108.151 15.8296 107.483 15.6997ZM138.082 34.9706C140.49 33.0708 142.452 30.8677 143.807 28.12C145.113 25.4651 146.147 22.705 147.335 20.0007C147.997 18.5031 148.771 17.0612 149.551 15.4707C148.988 15.6626 148.728 15.9967 148.462 16.3C145.472 19.5922 142.737 23.0392 141.183 27.2969C140.242 29.8837 139.444 32.5385 138.082 34.9706Z" fill="#0C0D09"/>
</g>
<path d="M210.327 25.1497L215.739 25.2512C216.799 25.2512 217.837 25.161 218.852 24.9806C218.942 25.2061 218.987 25.3978 218.987 25.5556L218.919 25.9616C218.062 26.3224 217.589 27.0554 217.499 28.1604C217.341 29.694 217.262 31.859 217.262 34.6555C215.909 34.6555 214.341 34.8246 212.56 35.1629C210.778 35.5237 209.357 35.7042 208.297 35.7042C204.418 35.7042 201.351 34.4976 199.096 32.0845C196.863 29.6489 195.747 26.593 195.747 22.917C195.747 19.2185 196.965 16.1626 199.4 13.7495C201.836 11.3364 204.948 10.1299 208.737 10.1299C211.804 10.1299 214.522 10.4569 216.89 11.1109C217.048 11.156 217.126 11.235 217.126 11.3477C217.126 11.4605 217.115 11.6071 217.093 11.7875C217.093 11.9679 217.07 12.2273 217.025 12.5655C217.002 12.8813 216.98 13.2421 216.957 13.6481C216.912 14.505 216.89 15.6327 216.89 17.0309C216.732 17.1211 216.518 17.1662 216.247 17.1662C215.976 17.1662 215.762 17.1324 215.604 17.0647C215.198 15.238 214.905 14.0991 214.725 13.6481C212.943 12.1145 210.778 11.3477 208.23 11.3477C205.704 11.3477 203.595 12.2498 201.904 14.054C200.235 15.8582 199.4 18.3276 199.4 21.4624C199.4 23.6725 199.761 25.7473 200.483 27.6868C201.227 29.6263 202.321 31.2275 203.764 32.4905C205.23 33.7308 206.922 34.351 208.839 34.351C210.778 34.351 212.627 33.9451 214.386 33.1332V31.0697C214.386 29.3782 214.319 27.8447 214.183 26.469C213.033 26.3337 211.748 26.266 210.327 26.266C210.237 26.1082 210.192 25.9278 210.192 25.7248L210.327 25.1497ZM235.271 22.7141L235.17 30.9682C235.17 32.6145 235.7 33.4377 236.76 33.4377L237.978 33.4038C238.068 33.5166 238.113 33.697 238.113 33.9451L238.045 34.3172C236.309 34.6329 235.068 35.0952 234.324 35.7042C233.828 35.5688 233.4 35.2644 233.039 34.7908C232.7 34.2946 232.509 33.7759 232.464 33.2347C230.659 34.3397 228.867 35.1629 227.085 35.7042C226.318 35.7042 225.529 35.2757 224.717 34.4187C223.905 33.5391 223.499 32.4454 223.499 31.1373C223.499 30.4833 223.646 29.897 223.939 29.3782C224.232 28.837 224.582 28.4649 224.988 28.2619C226.656 27.4275 229.137 26.6945 232.43 26.0631V22.8494C232.43 21.609 232.227 20.6844 231.821 20.0754C231.438 19.4665 230.964 19.1621 230.4 19.1621C229.859 19.1621 229.273 19.2636 228.641 19.4665C228.01 19.647 227.559 20.0078 227.288 20.549C227.04 21.0903 226.916 21.8571 226.916 22.8494C226.916 22.9396 226.758 23.0411 226.442 23.1538C226.149 23.244 225.766 23.2891 225.292 23.2891C224.841 23.2891 224.525 23.1877 224.345 22.9847C224.187 22.7592 224.108 22.4322 224.108 22.0037C224.108 21.1918 224.694 20.3122 225.867 19.365C226.138 19.1846 226.927 18.8802 228.235 18.4517C229.566 18.0232 230.332 17.8089 230.535 17.8089C232.159 17.8089 233.354 18.2825 234.121 19.2297C234.888 20.1769 235.271 21.3384 235.271 22.7141ZM226.51 30.9682C226.51 31.5094 226.724 32.0958 227.153 32.7273C227.581 33.3587 228.066 33.6745 228.607 33.6745C229.171 33.6745 229.814 33.4828 230.535 33.0994C231.257 32.716 231.855 32.31 232.328 31.8815C232.396 30.551 232.43 29.0174 232.43 27.2809C230.535 27.529 228.867 28.0702 227.423 28.9047C226.814 29.1978 226.51 29.8857 226.51 30.9682ZM241.535 19.8386L240.216 19.8725C240.103 19.7597 240.047 19.5906 240.047 19.365L240.114 18.9591C241.648 18.7561 242.9 18.4404 243.869 18.0119C244.185 17.8766 244.377 17.8089 244.444 17.8089C244.693 17.8089 244.974 18.26 245.29 19.1621C245.606 20.0416 245.798 20.9212 245.865 21.8007C247.557 20.0416 249.09 18.711 250.466 17.8089C251.368 17.8089 252.112 18.0796 252.699 18.6208C253.285 19.1395 253.578 19.7935 253.578 20.5829C253.578 21.485 252.778 21.936 251.176 21.936C250.838 20.7407 250.263 20.1431 249.451 20.1431C248.91 20.1431 247.782 21.079 246.068 22.9509C245.933 24.6648 245.865 27.3937 245.865 31.1373C245.865 33.0092 246.012 33.9564 246.305 33.9789C246.824 34.0466 247.737 34.0804 249.045 34.0804C249.113 34.2383 249.147 34.4187 249.147 34.6216C249.147 34.8246 249.113 34.9938 249.045 35.1291L245.256 35.0276C243.407 35.0276 241.772 35.1178 240.351 35.2982C240.238 35.1629 240.182 34.9712 240.182 34.7231L240.216 34.4525C241.411 34.227 242.178 33.8774 242.516 33.4038C242.764 33.043 242.945 32.4679 243.057 31.6786C243.17 30.8667 243.227 29.288 243.227 26.9426C243.227 24.5972 243.215 23.3004 243.193 23.0523C243.193 22.8043 243.182 22.4773 243.159 22.0713C243.136 21.6654 243.091 21.3609 243.024 21.158C242.956 20.955 242.855 20.7295 242.719 20.4814C242.494 20.0529 242.099 19.8386 241.535 19.8386ZM270.334 26.6043C270.334 29.6038 270.39 31.3741 270.503 31.9154C270.684 32.9302 271.146 33.4377 271.89 33.4377C272.161 33.4377 272.567 33.4264 273.108 33.4038C273.198 33.5617 273.243 33.7534 273.243 33.9789L273.209 34.3172C271.676 34.5878 270.548 34.9599 269.827 35.4335L269.421 35.7042C269.082 35.7042 268.688 35.3884 268.237 34.757C267.786 34.1255 267.56 33.4151 267.56 32.6258C265.801 33.7534 263.704 34.7795 261.268 35.7042C259.622 35.3659 258.156 34.351 256.87 32.6596C255.585 30.9456 254.942 28.9723 254.942 26.7396C254.942 25.2963 255.224 24.0108 255.788 22.8832C256.352 21.733 257.017 20.8648 257.784 20.2784C258.55 19.6695 259.385 19.1621 260.287 18.7561C261.685 18.1247 262.824 17.8089 263.704 17.8089C263.794 17.8089 265.102 17.9894 267.628 18.3502V12.1934C267.628 10.1412 267.391 8.88953 266.917 8.43848C266.669 8.19041 266.342 8.04382 265.936 7.99871L264.718 7.8634C264.628 7.68298 264.583 7.54767 264.583 7.45746L264.718 7.01769C265.688 6.83727 266.624 6.60047 267.526 6.30729C268.428 5.96901 269.409 5.45031 270.469 4.75119C270.74 4.75119 270.92 4.86395 271.011 5.08947C270.56 6.80344 270.334 13.9751 270.334 26.6043ZM257.784 25.4542C257.784 27.5064 258.302 29.3331 259.34 30.9344C260.4 32.513 261.572 33.3023 262.858 33.3023C264.166 33.3023 265.756 32.6032 267.628 31.205V21.4962C267.628 20.8648 266.861 20.3348 265.327 19.9063C263.794 19.4553 262.723 19.2297 262.114 19.2297C261.167 19.2297 260.208 19.8838 259.238 21.1918C258.269 22.4773 257.784 23.8981 257.784 25.4542ZM284.83 33.2685C286.679 33.2685 288.314 32.7724 289.735 31.7801C290.051 31.8928 290.231 32.1296 290.276 32.4905L286.623 35.0614C286.082 35.4899 284.875 35.7042 283.003 35.7042C281.131 35.7042 279.541 34.8697 278.233 33.2009C276.925 31.5094 276.271 29.3782 276.271 26.8073C276.271 24.2363 276.982 22.2066 278.403 20.7182C279.823 19.2297 281.515 18.26 283.477 17.8089C285.191 17.8089 286.702 18.384 288.01 19.5342C288.799 20.2108 289.352 21.0903 289.667 22.1728C289.735 22.4434 290.051 22.59 290.615 22.6126C290.75 22.7704 290.818 22.9396 290.818 23.12C290.818 23.2779 290.795 23.447 290.75 23.6274C286.781 24.5521 282.879 25.1948 279.045 25.5556C279.045 28.4423 279.846 30.6073 281.447 32.0507C282.349 32.8626 283.477 33.2685 284.83 33.2685ZM286.961 22.9509C287.074 22.8832 287.13 22.8043 287.13 22.7141C287.13 22.6013 286.984 22.2856 286.691 21.7669C286.42 21.2256 285.935 20.6618 285.236 20.0754C284.537 19.4665 283.804 19.1621 283.037 19.1621C282.27 19.1621 281.707 19.2748 281.346 19.5004C280.083 20.3573 279.361 21.9135 279.181 24.1687C280.398 24.1687 281.785 24.0446 283.342 23.7966C284.898 23.5259 286.104 23.244 286.961 22.9509ZM295.134 19.8386L293.815 19.8725C293.725 19.7597 293.68 19.6131 293.68 19.4327C293.68 19.2523 293.702 19.0944 293.747 18.9591C295.281 18.7561 296.532 18.4404 297.502 18.0119C297.818 17.8766 298.01 17.8089 298.077 17.8089C298.28 17.8089 298.528 18.1247 298.821 18.7561C299.115 19.3876 299.363 20.0867 299.566 20.8535C301.843 19.568 304.065 18.5532 306.23 17.8089C307.606 17.8089 308.666 18.3615 309.41 19.4665C310.154 20.549 310.526 21.9924 310.526 23.7966L310.458 28.2619C310.458 32.0281 310.628 33.9451 310.966 34.0127C311.304 34.0578 311.936 34.0804 312.86 34.0804C312.95 34.2383 312.996 34.4074 312.996 34.5878C312.996 34.7682 312.95 34.9487 312.86 35.1291L309.748 35.0276C307.876 35.0276 306.388 35.1178 305.283 35.2982C305.17 35.1629 305.114 34.9712 305.114 34.7231L305.147 34.4525C305.801 34.2946 306.309 34.0804 306.67 33.8098C307.03 33.5166 307.256 33.246 307.346 32.9979C307.459 32.7273 307.549 32.3326 307.617 31.8139C307.684 31.2726 307.718 30.2352 307.718 28.7017V25.8939C307.718 24.3153 307.538 22.9847 307.177 21.9022C307.019 21.4737 306.839 21.158 306.636 20.955C306.14 20.4137 305.542 20.1431 304.843 20.1431C304.144 20.1431 303.445 20.2784 302.746 20.549C302.046 20.8197 301.516 21.0677 301.156 21.2933C300.795 21.5188 300.287 21.8571 299.633 22.3081C299.543 24.0897 299.498 26.4803 299.498 29.4797C299.498 32.4566 299.645 33.9676 299.938 34.0127C300.254 34.0578 300.829 34.0804 301.663 34.0804C301.753 34.2383 301.798 34.4074 301.798 34.5878C301.798 34.7682 301.753 34.9487 301.663 35.1291L298.788 35.0276C297.074 35.0276 295.585 35.1178 294.322 35.2982C294.21 35.1629 294.153 34.9712 294.153 34.7231L294.187 34.4525C294.841 34.2946 295.348 34.0804 295.709 33.8098C296.07 33.5166 296.296 33.246 296.386 32.9979C296.499 32.7273 296.589 32.2424 296.656 31.5433C296.747 30.8216 296.792 29.288 296.792 26.9426C296.792 24.5972 296.78 23.3004 296.758 23.0523C296.758 22.7817 296.747 22.4434 296.724 22.0375C296.702 21.6316 296.656 21.3271 296.589 21.1241C296.521 20.9212 296.42 20.7069 296.284 20.4814C296.059 20.0529 295.675 19.8386 295.134 19.8386Z" fill="#0C0D09"/>
<path d="M18.0288 35.0614L11.8044 35.0276C7.67731 35.0276 4.57638 35.1629 2.50157 35.4335C2.3437 35.1629 2.26477 34.8472 2.26477 34.4863C2.98644 33.7421 3.60663 33.0092 4.12533 32.2875C9.89871 24.507 14.5783 17.7413 18.1641 11.9905H14.1047C10.5189 11.9905 7.76752 12.2611 5.85058 12.8023C5.69271 13.3436 5.47847 14.4938 5.20784 16.2528C5.04997 16.343 4.85828 16.3882 4.63276 16.3882C4.40724 16.3882 4.15916 16.3656 3.88853 16.3205C3.82088 14.6967 3.62918 12.8587 3.31345 10.8065C3.31345 10.5584 3.50514 10.4344 3.88853 10.4344C3.88853 10.4344 7.04585 10.5133 13.3605 10.6712H15.4578C18.322 10.6712 20.8704 10.5246 23.1031 10.2314C23.2835 10.4569 23.3737 10.7501 23.3737 11.1109C22.652 11.6296 20.363 14.6967 16.5065 20.3122C12.6501 25.9278 9.66191 30.3818 7.542 33.6745H10.9248C12.6163 33.6745 14.5219 33.5279 16.6418 33.2347C18.7617 32.9415 20.2389 32.6483 21.0733 32.3551C21.6146 31.6335 22.2461 30.5284 22.9677 29.04C23.4639 29.04 23.8924 29.1302 24.2532 29.3106C23.8247 31.0246 23.4752 32.7498 23.2045 34.4863C23.182 34.757 22.9565 34.9261 22.528 34.9938C22.122 35.0389 20.6223 35.0614 18.0288 35.0614ZM36.6447 33.2685C38.494 33.2685 40.129 32.7724 41.5498 31.7801C41.8656 31.8928 42.046 32.1296 42.0911 32.4905L38.4376 35.0614C37.8964 35.4899 36.6898 35.7042 34.818 35.7042C32.9461 35.7042 31.3562 34.8697 30.0482 33.2009C28.7401 31.5094 28.0861 29.3782 28.0861 26.8073C28.0861 24.2363 28.7965 22.2066 30.2173 20.7182C31.6381 19.2297 33.3295 18.26 35.2916 17.8089C37.0055 17.8089 38.5165 18.384 39.8246 19.5342C40.6139 20.2108 41.1664 21.0903 41.4822 22.1728C41.5498 22.4434 41.8656 22.59 42.4294 22.6126C42.5647 22.7704 42.6323 22.9396 42.6323 23.12C42.6323 23.2779 42.6098 23.447 42.5647 23.6274C38.5955 24.5521 34.6939 25.1948 30.8601 25.5556C30.8601 28.4423 31.6607 30.6073 33.2619 32.0507C34.164 32.8626 35.2916 33.2685 36.6447 33.2685ZM38.7759 22.9509C38.8887 22.8832 38.945 22.8043 38.945 22.7141C38.945 22.6013 38.7984 22.2856 38.5053 21.7669C38.2346 21.2256 37.7498 20.6618 37.0506 20.0754C36.3515 19.4665 35.6186 19.1621 34.8518 19.1621C34.085 19.1621 33.5212 19.2748 33.1604 19.5004C31.8975 20.3573 31.1758 21.9135 30.9954 24.1687C32.2132 24.1687 33.6002 24.0446 35.1563 23.7966C36.7124 23.5259 37.9189 23.244 38.7759 22.9509ZM46.9489 19.8386L45.6296 19.8725C45.5394 19.7597 45.4943 19.6131 45.4943 19.4327C45.4943 19.2523 45.5168 19.0944 45.5619 18.9591C47.0955 18.7561 48.3471 18.4404 49.3169 18.0119C49.6326 17.8766 49.8243 17.8089 49.892 17.8089C50.0949 17.8089 50.343 18.1247 50.6362 18.7561C50.9294 19.3876 51.1774 20.0867 51.3804 20.8535C53.6582 19.568 55.8796 18.5532 58.0446 17.8089C59.4203 17.8089 60.4802 18.3615 61.2245 19.4665C61.9687 20.549 62.3408 21.9924 62.3408 23.7966L62.2731 28.2619C62.2731 32.0281 62.4423 33.9451 62.7806 34.0127C63.1188 34.0578 63.7503 34.0804 64.675 34.0804C64.7652 34.2383 64.8103 34.4074 64.8103 34.5878C64.8103 34.7682 64.7652 34.9487 64.675 35.1291L61.5627 35.0276C59.6909 35.0276 58.2025 35.1178 57.0974 35.2982C56.9846 35.1629 56.9283 34.9712 56.9283 34.7231L56.9621 34.4525C57.6161 34.2946 58.1235 34.0804 58.4844 33.8098C58.8452 33.5166 59.0707 33.246 59.1609 32.9979C59.2737 32.7273 59.3639 32.3326 59.4316 31.8139C59.4992 31.2726 59.533 30.2352 59.533 28.7017V25.8939C59.533 24.3153 59.3526 22.9847 58.9918 21.9022C58.8339 21.4737 58.6535 21.158 58.4505 20.955C57.9544 20.4137 57.3567 20.1431 56.6576 20.1431C55.9585 20.1431 55.2594 20.2784 54.5603 20.549C53.8612 20.8197 53.3312 21.0677 52.9703 21.2933C52.6095 21.5188 52.1021 21.8571 51.4481 22.3081C51.3579 24.0897 51.3127 26.4803 51.3127 29.4797C51.3127 32.4566 51.4593 33.9676 51.7525 34.0127C52.0682 34.0578 52.6433 34.0804 53.4778 34.0804C53.568 34.2383 53.6131 34.4074 53.6131 34.5878C53.6131 34.7682 53.568 34.9487 53.4778 35.1291L50.6024 35.0276C48.8884 35.0276 47.3999 35.1178 46.137 35.2982C46.0242 35.1629 45.9679 34.9712 45.9679 34.7231L46.0017 34.4525C46.6557 34.2946 47.1631 34.0804 47.524 33.8098C47.8848 33.5166 48.1103 33.246 48.2005 32.9979C48.3133 32.7273 48.4035 32.2424 48.4712 31.5433C48.5614 30.8216 48.6065 29.288 48.6065 26.9426C48.6065 24.5972 48.5952 23.3004 48.5726 23.0523C48.5726 22.7817 48.5614 22.4434 48.5388 22.0375C48.5163 21.6316 48.4712 21.3271 48.4035 21.1241C48.3358 20.9212 48.2344 20.7069 48.0991 20.4814C47.8735 20.0529 47.4901 19.8386 46.9489 19.8386Z" fill="#0C0D09"/>
</svg>
