<svg width="488" height="287" viewBox="0 0 488 287" fill="none" xmlns="http://www.w3.org/2000/svg">
<mask id="mask0_229_385" style="mask-type:luminance" maskUnits="userSpaceOnUse" x="109" y="188" width="262" height="99">
<path d="M109.512 188.261H370.358V286.366H109.512V188.261Z" fill="white"/>
</mask>
<g mask="url(#mask0_229_385)">
<path d="M298.517 273.665C288.259 273.488 278.057 273.814 267.989 276.11C263.832 277.061 259.757 278.284 255.817 279.914C251.51 281.693 247.217 283.527 243.005 285.51C241.171 286.366 239.663 286.353 237.843 285.483C229.8 281.585 221.662 277.971 212.858 276.097C206.297 274.684 199.68 273.814 192.969 273.733C187.29 273.651 181.598 273.434 175.932 273.733C162.306 274.453 150.106 270.391 138.938 262.961C131.602 258.098 123.749 254.471 115.435 251.713C114.851 251.523 114.267 251.319 113.75 251.02C111.685 249.77 111.4 247.57 113.139 245.94C113.859 245.261 114.796 244.772 115.68 244.31C122.703 240.737 130.23 238.713 137.865 237.056C140.84 236.404 140.827 236.417 140.351 233.456C139.713 229.557 138.843 225.672 139.889 221.719C140.039 221.121 140.161 220.537 140.338 219.953C141.873 214.859 143.666 213.487 148.965 213.99C154.304 214.492 159.629 215.267 164.819 216.666C167.713 217.454 167.808 217.454 168.121 214.37C168.392 211.748 168.474 209.113 168.542 206.491C168.582 204.861 168.718 203.245 169.085 201.655C169.914 198.015 172.563 197.159 175.307 199.658C176.571 200.813 177.862 201.981 178.962 203.299C181.013 205.703 183.758 206.98 186.502 208.298C187.725 208.896 188.676 208.855 189.07 207.361C190.7 201.234 194.871 196.765 198.865 192.174C200.604 190.177 201.8 189.851 204.232 190.734C209.856 192.798 215.317 195.203 220.616 198.001C223.156 199.346 225.371 201.085 227.287 203.217C228.822 204.929 228.958 204.916 230.629 203.272C232.585 201.356 234.365 199.264 235.832 196.942C236.769 195.474 237.965 194.252 239.174 193.016C240.084 192.106 240.886 192.119 241.742 193.084C242.815 194.306 244.133 195.352 244.948 196.711C246.483 199.278 248.657 201.275 250.545 203.503C251.727 204.888 252.203 204.916 253.493 203.476C257.162 199.319 261.917 196.901 266.903 194.822C270.095 193.491 273.274 192.174 276.426 190.788C278.709 189.769 280.516 190.285 282.105 192.133C286.072 196.751 290.229 201.248 291.9 207.333C292.335 208.896 293.191 208.841 294.4 208.271C297.172 206.98 299.862 205.663 301.927 203.258C303.163 201.791 304.562 200.446 306.07 199.237C308.461 197.322 310.785 198.069 311.736 200.963C312.13 202.131 312.157 203.34 312.238 204.562C312.428 208.108 312.619 211.64 312.85 215.172C312.999 217.264 313.23 217.427 315.295 216.87C321.083 215.28 327.006 214.411 332.957 213.949C337.155 213.623 338.731 214.886 340.252 218.839C341.814 222.86 341.624 226.976 341.054 231.133C340.293 236.811 339.07 236.023 345.388 237.531C352.276 239.188 359.136 241.036 365.508 244.323C367.233 245.206 369.176 246.035 368.932 248.439C368.714 250.599 366.88 251.251 365.114 251.849C356.813 254.634 348.988 258.329 341.651 263.205C334.709 267.837 327.169 271.383 318.841 272.85C313.42 273.801 307.945 273.733 302.47 273.679C301.152 273.651 299.834 273.665 298.517 273.665ZM223.184 258.614C223.387 258.559 223.578 258.505 223.781 258.451C223.781 257.35 223.836 256.25 223.768 255.15C223.387 248.575 225.412 242.707 229.202 237.49C232.503 232.953 235.221 228.104 237.625 223.064C238.006 222.249 238.454 221.42 238.997 220.714C240.044 219.396 240.791 219.423 241.946 220.727C242.761 221.651 243.25 222.779 243.78 223.865C246.076 228.633 248.616 233.211 251.754 237.49C254.675 241.457 256.564 245.885 257.134 250.884C257.447 253.628 257.325 256.359 257.297 259.144C257.773 258.641 258.099 258.138 258.344 257.595C261.55 250.694 264.308 243.603 267.759 236.825C268.669 235.018 268.275 233.279 267.392 231.595C265.191 227.411 262.216 223.838 258.629 220.809C253.521 216.476 248.494 212.074 244.948 206.26C244.051 204.793 243.019 203.394 241.932 202.063C240.791 200.65 240.234 200.677 239.079 202.063C238.373 202.919 237.707 203.842 237.109 204.766C233.509 210.213 229.27 215.049 224.189 219.22C220.018 222.616 216.336 226.528 213.728 231.35C212.573 233.483 212.41 235.398 213.592 237.653C216.418 243.033 218.755 248.657 221.119 254.253C221.744 255.734 222.477 257.16 223.184 258.614ZM195.836 267.674C195.251 267.158 194.898 266.805 194.518 266.506C187.018 260.692 180.687 253.737 174.981 246.225C173.46 244.215 171.762 243.073 169.316 242.693C162.686 241.634 156.043 241.321 149.345 241.987C140.569 242.87 131.819 243.834 123.627 247.434C123.057 247.692 122.146 247.556 122.092 248.752C129.591 251.781 136.561 255.87 143.476 260.081C152.524 265.596 162.482 267.973 173.025 268.055C179.709 268.109 186.393 268.123 193.078 268.136C193.866 268.123 194.681 268.299 195.836 267.674ZM285.705 267.837C286.466 268.286 287.376 268.123 288.259 268.123C295.243 268.109 302.226 268.136 309.222 268.014C319.235 267.837 328.704 265.419 337.29 260.244C344.246 256.06 351.148 251.835 358.702 248.792C358.865 248.738 358.973 248.521 359.299 248.168C355.984 247.013 352.928 245.478 349.572 244.676C341.461 242.734 333.201 241.919 324.9 241.593C320.24 241.403 315.608 242.041 311.002 242.802C309.277 243.087 307.837 243.698 306.695 245.274C300.908 253.262 294.224 260.42 286.439 266.52C286.059 266.819 285.569 267.063 285.705 267.837ZM215.141 267.036C208.158 261.263 203.851 253.737 200.197 245.763C199.096 243.372 198.132 240.914 197.072 238.509C193.458 230.304 189.165 222.534 183.513 215.538C181.095 212.577 178.052 210.675 174.424 209.14C174.18 211.504 173.949 213.501 173.759 215.511C172.957 223.825 173.555 231.88 177.916 239.338C179.044 241.28 180.348 243.06 181.625 244.867C186.407 251.618 191.923 257.636 198.906 262.186C200.794 263.409 202.819 264.346 205.019 264.835C208.348 265.542 211.744 266.004 215.141 267.036ZM266.142 266.954C268.859 266.302 271.481 265.582 274.171 265.175C277.853 264.604 281.1 263.042 284.089 260.842C290.392 256.25 295.202 250.3 299.943 244.187C307.728 234.176 308.638 222.915 306.668 211.015C306.41 209.48 306.002 209.317 304.617 210.01C301.383 211.626 298.761 213.949 296.547 216.802C290.583 224.463 286.222 233.008 282.485 241.919C279.945 248.005 277.173 253.982 273.098 259.239C270.992 261.969 268.37 264.21 266.142 266.954ZM240.397 228.104C238.916 232.03 236.307 235.004 233.998 238.197C233.237 239.256 232.49 240.384 232.001 241.579C227.681 252.012 227.531 267.702 239.147 278.569C240.098 279.452 240.845 279.52 241.715 278.596C245.804 274.317 249.581 269.834 250.613 263.721C250.939 261.833 251.388 259.945 251.591 258.043C252.284 251.523 251.034 245.328 247.95 239.569C246.904 237.626 245.369 235.955 243.997 234.203C242.584 232.356 241.918 230.087 240.397 228.104ZM209.204 228.96C209.639 228.375 209.883 228.158 209.992 227.9C212.125 222.969 215.413 218.907 219.271 215.239C221.187 213.433 222.98 211.504 224.787 209.588C226.553 207.714 226.539 207.374 224.895 205.554C222.844 203.272 220.48 201.438 217.736 200.012C213.483 197.811 208.864 196.52 204.53 194.578C203.213 193.98 202.452 194.551 201.759 195.597C199.789 198.531 197.724 201.424 195.795 204.399C194.98 205.663 194.3 207.048 193.716 208.447C192.697 210.96 192.833 211.45 195.115 212.957C198.716 215.348 201.623 218.364 204.028 221.964C205.59 224.287 207.071 226.705 209.204 228.96ZM271.766 229.394C274.076 226.08 276.073 223.281 278.002 220.442C279.442 218.323 281.14 216.476 283.178 214.968C284.238 214.18 285.325 213.433 286.385 212.658C288.232 211.327 288.327 211.069 287.512 208.896C287.24 208.135 286.887 207.401 286.507 206.681C284.428 202.62 281.263 199.251 279.048 195.257C278.464 194.225 277.581 194.021 276.453 194.524C271.848 196.588 266.971 198.015 262.514 200.473C260.096 201.805 257.922 203.394 256.061 205.445C254.309 207.347 254.254 207.497 256.143 209.371C258.656 211.843 260.979 214.506 263.533 216.978C267.025 220.374 269.593 224.504 271.766 229.394ZM169.914 237.49C169.982 237.3 170.131 237.083 170.09 236.947C168.664 232.478 167.89 227.914 167.835 223.227C167.822 222.059 167.17 221.325 166.096 221.026C164.439 220.551 162.795 220.035 161.11 219.736C156.926 218.989 152.728 218.337 148.543 217.657C146.152 217.277 145.704 217.494 145.256 219.94C144.509 223.92 144.019 227.927 144.644 232.002C145.229 235.779 145.201 235.82 148.883 235.806C155.472 235.792 162.007 236.132 168.46 237.613C168.949 237.708 169.466 237.871 169.914 237.49ZM310.459 237.681C312.524 237.803 313.95 237.219 315.417 236.988C321.123 236.078 326.857 235.738 332.631 235.779C335.647 235.806 336.122 235.344 336.312 232.315C336.462 230.005 336.407 227.669 336.421 225.346C336.435 223.308 336.081 221.325 335.606 219.355C335.28 218.024 334.56 217.223 332.997 217.508C327.631 218.473 322.237 219.328 316.885 220.374C313.801 220.986 313.298 221.475 313.094 224.558C312.822 228.919 312.306 233.198 310.459 237.681ZM194.518 221.882C196.134 225.305 197.697 228.443 199.123 231.636C201.868 237.708 204.096 244.011 207.18 249.947C209.679 254.769 212.954 258.953 216.989 262.553C217.396 262.92 217.763 263.558 218.497 263.205C218.768 262.648 218.456 262.214 218.238 261.779C216.758 258.777 215.453 255.707 214.462 252.528C211.065 241.579 204.979 232.26 197.303 223.906C196.596 223.118 195.985 222.167 194.518 221.882ZM261.686 264.183C266.971 260.013 271.277 255.177 274.253 249.146C277.119 243.318 279.388 237.259 281.996 231.323C283.45 228.036 285.148 224.871 286.86 221.38C285.624 221.801 285.053 222.534 284.469 223.2C277.907 230.427 271.902 237.993 268.492 247.339C266.427 253.017 264.675 258.845 261.686 264.183Z" fill="#0C0D09"/>
</g>
<path d="M433.491 160.043C435.719 155.845 436.955 151.675 438.26 147.559C438.504 146.785 438.627 145.97 438.898 145.209C440.827 139.571 440.135 134.029 438.355 128.541C436.792 123.719 435.053 118.978 433.994 114.006C432.268 105.937 433.111 98.1124 435.284 90.288C437.757 81.3631 442.512 73.8375 448.925 67.2763C451.682 64.4644 454.508 61.7204 457.321 58.9492C458.842 57.455 460.635 57.7403 461.451 59.6964C461.845 60.6065 461.994 61.6525 462.143 62.6441C462.755 66.5564 463.76 70.3735 465.241 74.0549C469.915 85.7101 468.692 97.08 463.502 108.219C462.388 110.623 460.608 112.607 458.856 114.563C455.88 117.891 452.946 121.246 449.957 124.547C448.87 125.743 448.232 127.033 448.34 128.65C448.49 130.945 447.539 133.2 447.906 135.428C448.422 135.659 448.694 135.537 448.911 135.306C455.147 128.976 462.904 125.783 471.504 124.398C474.819 123.854 478.066 123.135 481.286 122.211C485.131 121.11 487.033 122.482 487.467 126.503C487.603 127.74 487.562 128.962 487.25 130.13C484.614 139.897 479.791 147.803 469.575 151.308C464.086 153.183 458.38 154.174 452.837 155.791C448.816 156.973 445.039 158.576 441.466 160.763C440.107 161.605 439.143 162.624 438.409 164.023C434.727 171.046 430.434 177.661 425.285 183.693C421.114 188.57 416.4 192.849 411.278 196.706C410.219 197.508 409.05 198.133 407.787 198.513C406.836 198.798 405.708 199.315 405.002 198.241C404.268 197.141 405.233 196.38 405.926 195.66C406.211 195.362 406.564 195.144 406.849 194.859C413.126 188.692 419.375 182.47 424.62 175.339C428.342 170.285 428.342 164.349 428.614 158.494C428.668 157.326 427.839 156.633 426.848 156.253C425.421 155.737 423.967 155.275 422.514 154.881C421.237 154.528 419.933 154.351 418.655 154.025C411.183 152.082 406.469 146.146 406.089 138.39C405.817 132.942 407.053 127.712 408.113 122.455C408.819 118.883 409.757 115.351 410.586 111.792C410.898 110.474 411.645 109.387 412.392 108.301C412.664 107.879 413.017 107.499 413.615 107.567C414.226 107.649 414.566 108.165 414.539 108.613C414.39 112.05 416.957 113.748 419.009 115.813C421.087 117.905 423.044 120.092 425.054 122.238C428.967 126.435 431.018 131.557 432.486 137.004C434.32 143.769 434.32 150.602 433.382 157.489C433.301 158.087 433.219 158.684 433.165 159.282C433.165 159.364 433.247 159.472 433.491 160.043ZM449.468 118.801C453.123 114.291 456.831 110.134 459.073 104.959C462.062 98.0989 463.475 91.0079 461.396 83.6453C460.201 79.3663 458.516 75.2231 457.035 71.0392C456.994 70.9305 456.696 70.9033 456.465 70.8218C456.288 71.0392 456.043 71.2429 455.921 71.501C453.476 77.0841 451.329 82.7759 450.147 88.7529C448.232 98.4792 448.802 108.314 449.006 118.122C449.006 118.203 449.115 118.285 449.468 118.801ZM447.661 151.512C448.245 152.082 448.653 151.919 449.006 151.756C453.313 149.895 457.891 149.053 462.388 147.831C465.798 146.907 469.194 145.888 472.292 144.081C477.794 140.862 481.381 136.094 483.174 130.049C484.003 127.278 483.079 126.517 480.28 127.278C475.892 128.5 471.504 129.723 467.129 130.973C462.483 132.304 458.367 134.627 454.712 137.765C453.367 138.906 452.09 140.128 451.044 142.343C455.092 140.183 458.57 138.403 462.279 137.058C463.407 136.651 464.562 136.175 465.812 136.379C466.831 136.542 467.129 137.357 466.437 138.131C465.676 138.974 464.63 139.422 463.651 139.925C459.766 141.908 455.989 144.041 452.538 146.73C450.731 148.17 449.142 149.787 447.661 151.512ZM413.669 120.391C411.971 126.463 410.884 132.413 411.183 138.525C411.373 142.478 412.841 145.82 416.128 148.129C419.661 150.629 423.791 151.525 427.867 152.558C428.505 151.335 428.002 150.384 427.731 149.447C427.106 147.301 426.196 145.277 425.095 143.334C421.658 137.276 418.085 131.285 415.381 124.846C414.756 123.365 414.226 121.871 413.669 120.391ZM441.045 124.425C442.213 122.849 441.941 121.695 441.969 120.621C442.05 115.351 441.969 110.08 442.159 104.823C442.485 95.3277 444.224 86.1312 448.395 77.5052C448.639 76.989 449.115 76.5136 448.721 75.4269C445.596 80.4394 442.431 85.0852 440.135 90.2336C437.689 95.7624 436.235 101.508 436.752 107.635C437.091 111.697 438.11 115.595 439.333 119.467C439.822 120.975 440.379 122.469 441.045 124.425ZM419.022 123.175C421.93 131.013 426.793 137.778 430.801 145.019C429.959 136.094 425.394 129.152 419.022 123.175Z" fill="#0C0D09"/>
<path d="M54.6116 160.808C54.3671 158.688 54.2312 156.882 53.9731 155.089C52.7368 146.843 54.1497 138.964 57.0842 131.248C59.0134 126.168 62.7087 122.392 66.1731 118.452C67.3822 117.094 68.7408 115.858 70.0586 114.594C71.621 113.114 73.1698 111.674 73.0747 109.242C73.0475 108.644 73.2784 107.979 74.0392 107.911C74.6098 107.843 74.9495 108.305 75.2212 108.739C75.9005 109.853 76.607 110.954 76.9466 112.258C78.8078 119.417 80.3838 126.643 81.4571 133.965C82.0005 137.674 81.5114 141.246 80.0985 144.697C77.9927 149.832 74.243 153.119 68.8359 154.437C66.5807 154.994 64.2711 155.388 62.0566 156.094C59.5025 156.895 59.1221 157.615 59.0677 160.332C59.0134 163.592 59.4753 166.798 60.1682 169.977C60.5214 171.58 61.1871 173.033 62.0974 174.405C64.57 178.141 67.3958 181.578 70.4798 184.797C73.917 188.37 77.4629 191.861 80.9544 195.393C81.4571 195.896 82.0005 196.371 82.3673 196.969C83.1145 198.151 82.5032 199.183 81.0767 199.169C80.1393 199.156 79.2833 198.803 78.4682 198.395C77.096 197.729 75.8733 196.833 74.6778 195.868C64.6379 187.867 56.4457 178.223 50.5902 166.839C48.1176 162.03 44.2728 159.667 39.7352 157.833C35.4013 156.107 30.8365 155.062 26.2989 154.002C23.3372 153.309 20.4298 152.453 17.5497 151.448C11.9795 149.492 7.67281 145.987 4.64319 140.907C2.97214 138.108 1.70866 135.134 0.648977 132.063C-0.084656 129.904 -0.206927 127.676 0.336503 125.462C0.934277 122.976 2.64608 121.536 4.99642 122.283C11.9659 124.47 19.3973 124.714 26.2174 127.458C30.4154 129.156 34.1786 131.452 37.4256 134.59C38.1321 135.269 38.6483 136.193 39.9526 136.601C39.6265 133.435 39.3005 130.447 39.0016 127.472C38.8929 126.277 38.1864 125.434 37.4392 124.606C34.0564 120.829 30.7143 117.026 27.3178 113.277C25.3751 111.13 23.935 108.739 22.9704 106.023C21.1363 100.847 19.4517 95.685 19.4381 90.0884C19.4381 85.1573 20.2396 80.4028 21.8699 75.7842C23.5138 71.0977 25.1713 66.4247 25.6875 61.4257C25.8234 60.0673 26.2989 58.804 27.8205 58.41C29.2334 58.0569 30.0757 58.8991 30.8365 59.9451C31.312 60.5971 31.869 61.222 32.5076 61.6974C36.4882 64.7403 39.4499 68.7476 42.792 72.4289C49.0143 79.3025 51.8265 87.7111 53.647 96.5137C55.4268 105.153 54.3127 113.657 51.6227 121.97C50.7125 124.769 49.68 127.526 48.8241 130.338C47.4247 135.079 47.1123 139.834 48.4437 144.71C49.7479 149.519 51.2831 154.219 53.253 158.784C53.5112 159.436 53.6334 160.169 54.6116 160.808ZM38.7434 119.743C39.3005 102.586 39.2597 86.081 30.7686 70.5815C29.3013 74.7518 27.9563 78.569 26.6385 82.3861C24.9131 87.3851 24.7637 92.4248 25.8913 97.6276C27.7797 106.24 32.6027 113.032 38.7434 119.743ZM36.3388 142.211C35.184 140.282 33.7575 139.019 32.3445 137.782C24.818 131.208 15.1042 130.067 6.02894 127.404C5.06435 127.119 4.50733 127.73 4.39865 128.695C4.23562 130.257 4.6296 131.71 5.28172 133.109C8.67816 140.472 14.3298 145.131 22.1009 147.359C27.739 148.976 33.5265 150.103 39.0423 152.168C39.1374 152.209 39.3276 151.991 39.5722 151.815C36.7192 148.161 33.1325 145.417 29.1519 143.162C26.951 141.912 24.7094 140.744 22.4949 139.494C21.6526 139.019 20.3212 138.597 20.7831 137.388C21.245 136.22 22.5356 136.682 23.473 136.94C26.9374 137.837 30.0757 139.521 33.2684 141.07C34.1243 141.477 34.9123 142.184 36.3388 142.211ZM74.1072 120.082C73.3056 122.242 72.7622 123.831 72.1101 125.38C69.5152 131.534 66.1459 137.28 62.8446 143.067C61.3773 145.621 60.1682 148.269 59.5025 151.149C59.1764 152.548 59.5568 152.97 60.8203 152.63C63.6461 151.869 66.4991 151.19 69.162 149.927C73.0882 148.038 75.3435 144.955 76.2266 140.689C77.0689 136.628 76.2401 132.648 75.7782 128.64C75.4793 125.978 75.1805 123.288 74.1072 120.082ZM38.4174 75.0371C38.2679 76.4498 38.757 77.0068 39.0559 77.6181C42.9958 85.8637 44.8434 94.5576 45.3054 103.673C45.645 110.234 45.6722 116.795 45.7809 123.37C45.7945 123.967 45.9167 124.551 45.9982 125.163C47.5606 121.672 48.7018 118.235 49.6936 114.73C52.0031 106.552 50.9842 98.7007 47.6557 91.0528C45.2374 85.592 41.8274 80.6745 38.4174 75.0371ZM56.9755 144.738C61.092 137.552 65.9557 130.827 68.8359 123.044C62.7631 129.129 57.7228 135.786 56.9755 144.738Z" fill="#0C0D09"/>
<path d="M109.783 227.506C106.944 227.438 104.662 224.979 104.77 222.086C104.865 219.464 107.419 217.073 110.014 217.155C112.718 217.25 115.109 219.899 115.014 222.67C114.905 225.455 112.623 227.56 109.783 227.506Z" fill="#0C0D09"/>
<path d="M376.105 222.371C376.119 225.251 374.067 227.424 371.268 227.506C368.307 227.587 366.119 225.387 366.16 222.371C366.187 219.396 368.47 217.114 371.323 217.182C374.149 217.263 376.105 219.383 376.105 222.371Z" fill="#0C0D09"/>
<path d="M387.069 213.501C384.732 213.487 383.006 211.925 383.034 209.874C383.061 207.877 385.207 206.043 387.422 206.138C389.487 206.22 391.117 207.877 391.076 209.833C391.049 211.925 389.297 213.514 387.069 213.501Z" fill="#0C0D09"/>
<path d="M94.0239 213.501C91.7143 213.514 90.0976 212.034 90.0569 209.887C90.0161 207.741 91.7415 206.043 93.8745 206.111C95.8716 206.165 97.8687 207.985 97.9774 209.833C98.0725 211.803 96.252 213.487 94.0239 213.501Z" fill="#0C0D09"/>
<path d="M125.638 234.583C124.13 234.583 122.744 233.239 122.703 231.744C122.676 230.277 124.035 228.892 125.584 228.851C127.173 228.797 128.409 230.033 128.409 231.676C128.409 233.374 127.227 234.597 125.638 234.583Z" fill="#0C0D09"/>
<path d="M352.466 231.799C352.384 230.345 353.838 228.81 355.305 228.796C356.772 228.783 358.24 230.25 358.24 231.731C358.24 233.157 357.017 234.448 355.577 234.543C354.11 234.638 352.547 233.266 352.466 231.799Z" fill="#0C0D09"/>
<path d="M221.446 68.9257L203.031 68.6287C196.744 68.6287 190.704 69.0495 184.912 69.8911C184.566 69.396 184.393 68.9752 184.393 68.6287C184.393 68.2822 184.442 68.0099 184.541 67.8119L220.926 18.4318H212.016C204.046 18.4318 198.204 19.0506 194.491 20.2882L190.853 29.1246C190.605 29.1741 190.283 29.1989 189.887 29.1989C189.541 29.1989 189.145 29.0256 188.699 28.6791L190.927 16.1298C191.026 15.5853 191.496 15.313 192.338 15.313L210.828 15.5358H214.912C220.357 15.5358 225.307 15.214 229.763 14.5705C230.159 14.8675 230.357 15.2883 230.357 15.8328L230.283 16.5011L193.749 66.0298C197.462 65.7822 201.372 65.6585 205.481 65.6585C213.748 65.6585 218.971 64.8664 221.149 63.2823C222.882 61.9952 224.639 59.322 226.421 55.2627C226.619 55.1637 226.941 55.1142 227.387 55.1142C227.832 55.1142 228.327 55.3617 228.872 55.8567C227.436 60.7576 226.372 64.7427 225.679 67.8119C225.53 68.406 225.208 68.7277 224.713 68.7772C224.367 68.8762 223.278 68.9257 221.446 68.9257ZM263.751 38.4809C263.751 42.5897 260.978 46.451 255.434 50.0648C251.771 52.54 247.934 54.0993 243.924 54.7429C243.924 58.0596 244.395 60.7576 245.335 62.8368C246.325 64.9159 247.736 65.9555 249.568 65.9555C252.587 65.9555 256.325 64.4704 260.78 61.5002C261.325 61.5992 261.647 62.0942 261.746 62.9853L252.761 68.9257C251.226 69.9653 249.097 70.4851 246.375 70.4851C243.701 70.4851 241.622 69.297 240.137 66.9208C238.652 64.5446 237.909 61.4754 237.909 57.7131C237.909 52.1687 239.419 46.9708 242.439 42.1194C245.508 37.268 249.667 33.6295 254.914 31.2038C257.736 31.2038 259.914 31.7483 261.449 32.8374C262.983 33.877 263.751 35.7581 263.751 38.4809ZM253.429 34.2483C251.746 34.2483 249.84 36.3027 247.711 40.4115C245.583 44.5203 244.345 48.7282 243.998 53.035C247.315 52.2429 250.285 50.7331 252.909 48.5054C256.077 45.6837 257.662 42.9857 257.662 40.4115C257.662 36.3027 256.251 34.2483 253.429 34.2483ZM296.362 43.753C296.362 39.3472 295.174 37.1442 292.798 37.1442C290.471 37.1442 287.55 39.7927 284.036 45.0896C280.57 50.3865 278.541 55.5597 277.947 60.6091L276.981 69.3713L271.338 70.4851L274.085 50.2133C274.481 47.045 274.679 44.7926 274.679 43.456C274.679 40.2382 274.036 38.6294 272.749 38.6294C272.402 38.6294 271.239 39.1492 269.259 40.1887C268.665 39.6937 268.368 39.0996 268.368 38.4066C272.081 36.3769 275.546 33.8027 278.764 30.684L280.026 31.0553C280.224 32.3919 280.323 33.9017 280.323 35.5849C280.323 37.2185 280.249 38.8769 280.1 40.56C279.952 42.2431 279.704 44.2728 279.358 46.649C279.061 49.0252 278.887 50.535 278.838 51.1786C283.937 39.7927 289.357 33.1344 295.1 31.2038C299.803 31.2038 302.154 34.3968 302.154 40.7828C302.154 43.2085 301.733 46.7975 300.892 51.5499C300.05 56.2527 299.629 59.1735 299.629 60.3121C299.629 61.4507 299.704 62.2922 299.852 62.8368C300.05 63.3318 300.471 63.5793 301.115 63.5793C301.808 63.5793 303.045 63.1833 304.827 62.3912C305.273 62.8368 305.496 63.4308 305.496 64.1734C301.832 65.6585 298.07 67.8614 294.209 70.7821L293.021 70.2623C293.021 66.203 293.565 61.1784 294.654 55.1884C295.793 49.1489 296.362 45.3371 296.362 43.753Z" fill="#0C0D09"/>
<path d="M160.446 145.134L171.139 145.283C173.862 145.283 176.238 145.085 178.268 144.689C178.367 145.085 178.416 145.456 178.416 145.802L178.268 146.916C176.931 147.114 175.916 147.535 175.223 148.179C174.53 148.773 174.01 149.961 173.664 151.743L171.733 161.842C169.753 163.426 167.03 164.762 163.565 165.851C160.1 166.941 156.635 167.485 153.169 167.485C147.031 167.485 142.08 165.356 138.318 161.099C134.556 156.792 132.675 151.619 132.675 145.58C132.675 139.491 134.036 133.872 136.759 128.724C139.481 123.526 143.194 119.343 147.897 116.174C152.65 112.957 157.699 111.348 163.045 111.348C168.441 111.348 173.342 112.14 177.748 113.724C177.996 113.922 178.119 114.145 178.119 114.392C178.119 114.59 177.996 115.407 177.748 116.843C176.906 122.387 176.411 125.927 176.263 127.461C175.916 127.659 175.496 127.758 175.001 127.758C174.505 127.758 174.06 127.709 173.664 127.61C173.466 122.362 173.243 119.194 172.996 118.105C172.006 117.065 170.421 116.125 168.243 115.283C166.115 114.442 164.06 114.021 162.08 114.021C158.169 114.021 154.506 115.506 151.09 118.476C147.724 121.397 145.1 125.085 143.219 129.54C141.338 133.996 140.397 138.525 140.397 143.129C140.397 148.575 141.536 153.377 143.813 157.535C144.952 159.664 146.536 161.371 148.565 162.658C150.645 163.896 152.848 164.515 155.174 164.515C157.55 164.515 159.729 164.218 161.709 163.624C163.738 163.03 165.298 162.213 166.387 161.173L167.872 147.956C165.941 147.708 163.392 147.585 160.224 147.585C160.075 147.238 160.001 146.867 160.001 146.471C160.001 146.075 160.149 145.629 160.446 145.134ZM194.836 161.545C197.163 161.545 200.207 158.946 203.97 153.748C207.732 148.5 210.133 143.401 211.172 138.451L212.435 132.362C209.118 132.362 206.47 132.486 204.489 132.733C201.717 133.08 198.796 135.357 195.727 139.565C192.658 143.723 191.123 148.426 191.123 153.674C191.123 158.921 192.361 161.545 194.836 161.545ZM218.301 127.313C215.331 143.401 213.846 153.03 213.846 156.198C213.846 159.366 214.291 160.951 215.182 160.951C215.38 160.951 216.94 160.431 219.86 159.391C220.306 159.738 220.529 160.332 220.529 161.173C217.113 162.609 214.86 163.723 213.771 164.515C211.593 166.149 210.232 167.238 209.687 167.782L208.499 167.262C207.955 166.47 207.682 164.663 207.682 161.842C207.682 159.02 208.177 154.837 209.167 149.292C202.781 159.49 197.064 165.554 192.014 167.485C190.183 167.139 188.623 166.025 187.336 164.144C186.049 162.262 185.406 159.787 185.406 156.718C185.406 151.916 186.495 147.609 188.673 143.798C191.792 138.204 196.197 134.045 201.89 131.323C204.564 130.035 206.692 129.243 208.276 128.946C211.593 128.6 213.351 128.377 213.549 128.278L217.41 126.793C217.657 126.793 217.954 126.966 218.301 127.313ZM231.898 140.456C231.898 137.238 231.254 135.629 229.967 135.629C229.621 135.629 228.457 136.149 226.477 137.189C225.883 136.694 225.586 136.1 225.586 135.407C229.299 133.377 232.764 130.803 235.982 127.684L237.244 128.055C237.541 129.788 237.69 131.669 237.69 133.699C237.69 135.728 237.517 138.179 237.17 141.05C240.388 134.516 243.952 130.233 247.863 128.204C250.14 128.204 252.219 128.55 254.1 129.243C253.209 132.808 252.566 136.298 252.17 139.713L251.947 141.57C251.65 141.669 251.303 141.718 250.907 141.718C250.511 141.718 250.115 141.669 249.719 141.57L249.051 134.813C248.308 134.367 247.343 134.144 246.155 134.144C244.521 134.144 242.615 135.803 240.437 139.119C238.309 142.387 236.947 145.53 236.353 148.55C235.561 153.253 234.843 159.193 234.2 166.371L228.556 167.485L231.304 147.213C231.7 144.045 231.898 141.793 231.898 140.456ZM287.367 160.951L291.971 159.391C292.416 159.688 292.639 160.282 292.639 161.173C288.283 162.906 284.644 165.109 281.724 167.782L280.461 167.188C280.016 164.317 279.793 161.866 279.793 159.837C279.793 157.758 280.04 154.243 280.535 149.292C274.546 159.342 268.605 165.406 262.714 167.485C260.882 167.238 259.397 166.074 258.259 163.995C257.17 161.916 256.625 159.094 256.625 155.53C256.625 151.916 257.318 148.377 258.704 144.911C260.09 141.446 261.724 138.723 263.605 136.743C265.536 134.763 267.59 133.08 269.768 131.694C273.531 129.367 276.303 128.204 278.085 128.204C278.729 128.204 280.535 128.451 283.506 128.946C283.605 128.006 283.902 125.778 284.397 122.263C285.387 115.234 285.882 111.001 285.882 109.566C285.882 108.13 285.709 107.214 285.362 106.818C285.065 106.373 284.545 106.1 283.803 106.001L278.976 105.779C278.828 105.184 278.753 104.838 278.753 104.739C278.753 104.64 278.828 104.368 278.976 103.922C283.679 103.229 287.912 102.239 291.674 100.952C292.02 100.952 292.317 101.175 292.565 101.62L287.59 138.303C286.451 146.372 285.882 152.164 285.882 155.678C285.882 159.193 286.377 160.951 287.367 160.951ZM265.833 161.545C267.565 161.545 269.694 160.258 272.219 157.683C274.744 155.06 276.996 151.916 278.976 148.253C280.956 144.59 282.12 141.322 282.466 138.451L283.06 133.55C280.981 132.956 279.075 132.535 277.342 132.288C275.61 132.04 274.645 131.917 274.446 131.917C271.625 131.917 268.902 134.243 266.278 138.897C263.704 143.5 262.417 148.352 262.417 153.451C262.417 155.975 262.714 157.956 263.308 159.391C263.952 160.827 264.793 161.545 265.833 161.545ZM324.408 135.481C324.408 139.59 321.636 143.451 316.091 147.065C312.428 149.54 308.591 151.099 304.582 151.743C304.582 155.06 305.052 157.758 305.992 159.837C306.983 161.916 308.393 162.956 310.225 162.956C313.245 162.956 316.982 161.47 321.438 158.5C321.982 158.599 322.304 159.094 322.403 159.985L313.418 165.926C311.883 166.965 309.755 167.485 307.032 167.485C304.359 167.485 302.28 166.297 300.795 163.921C299.309 161.545 298.567 158.475 298.567 154.713C298.567 149.169 300.077 143.971 303.096 139.119C306.166 134.268 310.324 130.629 315.571 128.204C318.393 128.204 320.571 128.748 322.106 129.837C323.641 130.877 324.408 132.758 324.408 135.481ZM314.086 131.248C312.403 131.248 310.497 133.303 308.369 137.412C306.24 141.52 305.002 145.728 304.656 150.035C307.973 149.243 310.943 147.733 313.567 145.505C316.735 142.684 318.319 139.986 318.319 137.412C318.319 133.303 316.908 131.248 314.086 131.248ZM357.02 140.753C357.02 136.347 355.831 134.144 353.455 134.144C351.129 134.144 348.208 136.793 344.693 142.09C341.228 147.387 339.198 152.56 338.604 157.609L337.639 166.371L331.995 167.485L334.743 147.213C335.139 144.045 335.337 141.793 335.337 140.456C335.337 137.238 334.693 135.629 333.406 135.629C333.06 135.629 331.896 136.149 329.916 137.189C329.322 136.694 329.025 136.1 329.025 135.407C332.738 133.377 336.203 130.803 339.421 127.684L340.683 128.055C340.881 129.392 340.98 130.902 340.98 132.585C340.98 134.219 340.906 135.877 340.758 137.56C340.609 139.243 340.362 141.273 340.015 143.649C339.718 146.025 339.545 147.535 339.495 148.179C344.594 136.793 350.015 130.134 355.757 128.204C360.46 128.204 362.812 131.397 362.812 137.783C362.812 140.208 362.391 143.798 361.549 148.55C360.708 153.253 360.287 156.173 360.287 157.312C360.287 158.451 360.361 159.292 360.51 159.837C360.708 160.332 361.128 160.579 361.772 160.579C362.465 160.579 363.703 160.183 365.485 159.391C365.93 159.837 366.153 160.431 366.153 161.173C362.49 162.658 358.727 164.861 354.866 167.782L353.678 167.262C353.678 163.203 354.223 158.178 355.312 152.188C356.45 146.149 357.02 142.337 357.02 140.753Z" fill="#0C0D09"/>
</svg>
