<svg width="313" height="48" viewBox="0 0 313 48" fill="none" xmlns="http://www.w3.org/2000/svg">
<mask id="mask0_252_557" style="mask-type:luminance" maskUnits="userSpaceOnUse" x="68" y="0" width="120" height="45">
<path d="M68.7571 0.156982H187.59V44.8502H68.7571V0.156982Z" fill="white"/>
</mask>
<g mask="url(#mask0_252_557)">
<path d="M154.861 39.064C150.188 38.9835 145.54 39.1321 140.954 40.1779C139.06 40.6111 137.203 41.1681 135.409 41.9107C133.447 42.7214 131.491 43.5568 129.572 44.4603C128.737 44.8502 128.05 44.844 127.22 44.448C123.556 42.6719 119.849 41.0257 115.838 40.1717C112.849 39.5281 109.835 39.1321 106.777 39.0949C104.19 39.0578 101.597 38.9588 99.0161 39.0949C92.8083 39.4229 87.2504 37.5726 82.1629 34.1875C78.8207 31.972 75.2434 30.3197 71.4556 29.0634C71.1895 28.9768 70.9233 28.8839 70.6881 28.7478C69.7474 28.1784 69.6174 27.1759 70.4096 26.4333C70.7377 26.1239 71.1647 25.9011 71.567 25.6907C74.7668 24.0631 78.1956 23.141 81.674 22.386C83.0294 22.089 83.0232 22.0952 82.8066 20.7461C82.5157 18.97 82.1196 17.2001 82.5962 15.3992C82.6642 15.1269 82.7199 14.8608 82.8004 14.5947C83.4998 12.274 84.3168 11.649 86.7305 11.878C89.1629 12.107 91.5891 12.4597 93.9533 13.0971C95.2716 13.456 95.315 13.456 95.4573 12.0513C95.5811 10.8569 95.6182 9.65631 95.6492 8.46194C95.6678 7.71932 95.7296 6.98289 95.8968 6.25884C96.2743 4.60033 97.4812 4.21045 98.7314 5.34913C99.307 5.87515 99.895 6.40736 100.396 7.00764C101.331 8.10301 102.581 8.68472 103.831 9.28501C104.388 9.5573 104.822 9.53873 105.001 8.858C105.744 6.06699 107.644 4.03098 109.463 1.93928C110.256 1.02957 110.8 0.881045 111.908 1.2833C114.471 2.22395 116.959 3.31931 119.372 4.59414C120.53 5.2068 121.539 5.99892 122.411 6.97051C123.111 7.75026 123.173 7.74407 123.934 6.99527C124.825 6.12269 125.636 5.16966 126.304 4.11143C126.731 3.44308 127.276 2.88611 127.827 2.32296C128.242 1.90833 128.607 1.91452 128.997 2.35391C129.486 2.91087 130.086 3.38738 130.457 4.00623C131.157 5.17585 132.147 6.08556 133.007 7.10047C133.546 7.7317 133.762 7.74407 134.35 7.08809C136.021 5.19442 138.188 4.09287 140.459 3.14603C141.913 2.53956 143.362 1.93928 144.798 1.30805C145.837 0.843917 146.661 1.07908 147.385 1.92071C149.192 4.0248 151.086 6.07318 151.847 8.84562C152.045 9.5573 152.435 9.53255 152.986 9.27263C154.249 8.68472 155.474 8.08444 156.415 6.98908C156.978 6.32072 157.615 5.70806 158.302 5.15729C159.392 4.28471 160.45 4.62508 160.883 5.94323C161.063 6.47543 161.075 7.02621 161.112 7.58317C161.199 9.19837 161.286 10.8074 161.391 12.4164C161.459 13.3694 161.564 13.4437 162.505 13.1899C165.142 12.4659 167.84 12.0698 170.551 11.8594C172.463 11.7109 173.181 12.2864 173.874 14.0873C174.586 15.9191 174.5 17.7942 174.24 19.6878C173.893 22.2746 173.336 21.9157 176.214 22.6026C179.352 23.3576 182.477 24.1992 185.38 25.6969C186.166 26.0991 187.051 26.4766 186.94 27.572C186.841 28.5559 186.005 28.853 185.201 29.1253C181.419 30.3939 177.854 32.0772 174.512 34.2989C171.349 36.4091 167.914 38.0243 164.12 38.6927C161.651 39.1259 159.157 39.0949 156.662 39.0702C156.062 39.0578 155.462 39.064 154.861 39.064ZM120.542 32.2071C120.635 32.1824 120.722 32.1576 120.814 32.1329C120.814 31.6316 120.839 31.1303 120.808 30.6291C120.635 27.6339 121.557 24.9604 123.284 22.5841C124.788 20.5171 126.026 18.3078 127.121 16.0119C127.295 15.6406 127.499 15.2631 127.746 14.9413C128.223 14.341 128.563 14.3534 129.089 14.9475C129.461 15.3683 129.684 15.8819 129.925 16.377C130.971 18.5492 132.128 20.6347 133.558 22.5841C134.889 24.3911 135.749 26.4085 136.009 28.6859C136.151 29.936 136.096 31.1799 136.083 32.4485C136.3 32.2195 136.448 31.9905 136.56 31.743C138.02 28.5993 139.277 25.3689 140.849 22.2808C141.264 21.4577 141.084 20.6656 140.682 19.8983C139.679 17.9922 138.324 16.3646 136.69 14.9846C134.363 13.0105 132.073 11.0054 130.457 8.35673C130.049 7.68838 129.578 7.05096 129.083 6.44449C128.563 5.80089 128.31 5.81327 127.784 6.44449C127.462 6.83437 127.158 7.25518 126.886 7.676C125.246 10.1576 123.315 12.3607 121 14.2605C119.1 15.8077 117.423 17.5899 116.234 19.7869C115.708 20.7585 115.634 21.631 116.173 22.6583C117.46 25.109 118.524 27.671 119.601 30.2206C119.886 30.8952 120.22 31.545 120.542 32.2071ZM108.083 36.3349C107.817 36.0997 107.656 35.9388 107.483 35.8027C104.066 33.154 101.182 29.9855 98.5829 26.5632C97.8897 25.6474 97.116 25.1275 96.002 24.9542C92.9816 24.4715 89.9551 24.3292 86.9038 24.6324C82.9056 25.0347 78.9198 25.4741 75.1877 27.114C74.9277 27.2316 74.5131 27.1697 74.4883 27.7143C77.9047 29.0943 81.0798 30.9571 84.2301 32.8755C88.3521 35.388 92.8888 36.471 97.6916 36.5081C100.737 36.5329 103.782 36.5391 106.827 36.5453C107.186 36.5391 107.557 36.6195 108.083 36.3349ZM149.025 36.4091C149.371 36.6133 149.786 36.5391 150.188 36.5391C153.37 36.5329 156.551 36.5453 159.738 36.4896C164.3 36.4091 168.614 35.3076 172.525 32.9498C175.694 31.0437 178.838 29.1191 182.279 27.7329C182.354 27.7081 182.403 27.6091 182.552 27.4482C181.042 26.9222 179.649 26.2229 178.12 25.8578C174.425 24.9728 170.662 24.6015 166.881 24.453C164.758 24.3663 162.647 24.6572 160.549 25.0038C159.763 25.1337 159.107 25.4122 158.587 26.1301C155.951 29.7689 152.905 33.0302 149.359 35.8088C149.186 35.945 148.963 36.0564 149.025 36.4091ZM116.878 36.044C113.697 33.4139 111.735 29.9855 110.07 26.3528C109.569 25.2637 109.129 24.1436 108.647 23.0482C107 19.3103 105.044 15.7705 102.47 12.5835C101.368 11.2344 99.9816 10.368 98.3291 9.66869C98.2177 10.7455 98.1125 11.6552 98.0258 12.5711C97.6607 16.3584 97.933 20.0282 99.9197 23.4257C100.433 24.3106 101.028 25.1213 101.609 25.9444C103.788 29.0201 106.301 31.7616 109.482 33.8347C110.342 34.3917 111.265 34.8187 112.267 35.0415C113.784 35.3633 115.331 35.5737 116.878 36.044ZM140.112 36.0069C141.35 35.7098 142.545 35.3818 143.77 35.1962C145.447 34.9363 146.927 34.2246 148.288 33.2221C151.16 31.1303 153.351 28.4198 155.511 25.635C159.058 21.0741 159.472 15.9438 158.575 10.5227C158.457 9.8234 158.272 9.74914 157.64 10.0648C156.167 10.8012 154.973 11.8594 153.964 13.159C151.247 16.6493 149.26 20.5419 147.558 24.6015C146.401 27.3739 145.138 30.0969 143.281 32.4918C142.322 33.7357 141.127 34.7568 140.112 36.0069ZM128.384 18.3078C127.709 20.0963 126.521 21.4516 125.469 22.9059C125.122 23.3886 124.782 23.9022 124.559 24.4468C122.591 29.1995 122.523 36.3472 127.814 41.298C128.248 41.7003 128.588 41.7312 128.984 41.3104C130.847 39.361 132.568 37.3188 133.038 34.534C133.187 33.6738 133.391 32.8136 133.484 31.9472C133.799 28.9768 133.23 26.1548 131.825 23.5309C131.348 22.6459 130.649 21.8848 130.024 21.0864C129.38 20.2448 129.077 19.2113 128.384 18.3078ZM114.173 18.6977C114.372 18.4316 114.483 18.3326 114.532 18.215C115.504 15.9686 117.002 14.1182 118.76 12.4473C119.632 11.6243 120.449 10.7455 121.272 9.87291C122.077 9.0189 122.071 8.86419 121.322 8.03493C120.387 6.99527 119.31 6.15982 118.06 5.51003C116.123 4.5075 114.019 3.91959 112.044 3.03464C111.444 2.76235 111.097 3.02226 110.782 3.49877C109.884 4.83549 108.944 6.15363 108.065 7.50891C107.693 8.08444 107.384 8.71567 107.118 9.35308C106.654 10.4979 106.715 10.7207 107.755 11.4077C109.395 12.4968 110.72 13.8707 111.815 15.5106C112.527 16.5689 113.202 17.6704 114.173 18.6977ZM142.675 18.8957C143.727 17.3857 144.637 16.1109 145.516 14.8175C146.172 13.8521 146.945 13.0105 147.874 12.3236C148.356 11.9646 148.852 11.6243 149.334 11.2715C150.176 10.665 150.219 10.5475 149.848 9.5573C149.724 9.21074 149.563 8.87657 149.39 8.54858C148.443 6.69822 147.001 5.16348 145.992 3.34406C145.726 2.87374 145.324 2.78091 144.81 3.00988C142.712 3.95053 140.49 4.60033 138.46 5.72044C137.358 6.32691 136.368 7.05096 135.52 7.98542C134.722 8.85181 134.697 8.91989 135.557 9.7739C136.702 10.9002 137.76 12.1131 138.924 13.2394C140.515 14.7866 141.684 16.6679 142.675 18.8957ZM96.2743 22.5841C96.3052 22.4974 96.3733 22.3984 96.3548 22.3365C95.7049 20.3005 95.3521 18.2212 95.3273 16.0861C95.3212 15.5539 95.0241 15.2198 94.5351 15.0836C93.78 14.867 93.0312 14.6319 92.2637 14.4957C90.3574 14.1553 88.445 13.8583 86.5387 13.5489C85.4494 13.3756 85.2451 13.4746 85.0409 14.5885C84.7005 16.4018 84.4777 18.2274 84.7624 20.0839C85.0285 21.8043 85.0161 21.8229 86.6934 21.8167C89.6952 21.8105 92.6722 21.9652 95.612 22.6398C95.8349 22.6831 96.07 22.7573 96.2743 22.5841ZM160.302 22.6707C161.242 22.7264 161.892 22.4603 162.561 22.3551C165.16 21.9405 167.772 21.7857 170.402 21.8043C171.776 21.8167 171.993 21.6063 172.08 20.2262C172.148 19.1742 172.123 18.1098 172.129 17.0516C172.135 16.1233 171.974 15.2198 171.758 14.3224C171.609 13.716 171.281 13.3508 170.569 13.4808C168.125 13.9202 165.668 14.3101 163.229 14.7866C161.824 15.065 161.595 15.2878 161.502 16.6926C161.378 18.6791 161.143 20.6285 160.302 22.6707ZM107.483 15.4735C108.219 17.033 108.931 18.4625 109.581 19.9168C110.831 22.6831 111.846 25.5545 113.251 28.2589C114.39 30.4558 115.882 32.3619 117.72 34.0018C117.906 34.1689 118.073 34.4598 118.407 34.2989C118.531 34.0451 118.388 33.8471 118.289 33.6491C117.615 32.2814 117.02 30.8828 116.569 29.4347C115.021 24.4468 112.249 20.2015 108.752 16.3956C108.43 16.0366 108.151 15.6034 107.483 15.4735ZM138.082 34.7444C140.49 32.8446 142.452 30.6415 143.807 27.8938C145.113 25.2389 146.147 22.4789 147.335 19.7745C147.997 18.2769 148.771 16.835 149.551 15.2445C148.988 15.4364 148.728 15.7705 148.462 16.0738C145.472 19.366 142.737 22.813 141.183 27.0707C140.242 29.6575 139.444 32.3123 138.082 34.7444Z" fill="#7D9672"/>
</g>
<path d="M210.327 24.9236L215.739 25.0251C216.799 25.0251 217.837 24.9349 218.852 24.7545C218.942 24.98 218.987 25.1717 218.987 25.3296L218.919 25.7355C218.062 26.0963 217.589 26.8293 217.499 27.9344C217.341 29.4679 217.262 31.6329 217.262 34.4294C215.909 34.4294 214.341 34.5985 212.56 34.9368C210.778 35.2977 209.357 35.4781 208.297 35.4781C204.418 35.4781 201.351 34.2715 199.096 31.8584C196.863 29.4228 195.747 26.367 195.747 22.691C195.747 18.9924 196.965 15.9366 199.4 13.5235C201.836 11.1104 204.948 9.90383 208.737 9.90383C211.804 9.90383 214.522 10.2308 216.89 10.8849C217.048 10.93 217.126 11.0089 217.126 11.1216C217.126 11.2344 217.115 11.381 217.093 11.5614C217.093 11.7418 217.07 12.0012 217.025 12.3395C217.002 12.6552 216.98 13.016 216.957 13.422C216.912 14.279 216.89 15.4066 216.89 16.8048C216.732 16.895 216.518 16.9401 216.247 16.9401C215.976 16.9401 215.762 16.9063 215.604 16.8386C215.198 15.0119 214.905 13.873 214.725 13.422C212.943 11.8884 210.778 11.1216 208.23 11.1216C205.704 11.1216 203.595 12.0237 201.904 13.8279C200.235 15.6321 199.4 18.1016 199.4 21.2363C199.4 23.4465 199.761 25.5213 200.483 27.4608C201.227 29.4002 202.321 31.0015 203.764 32.2644C205.23 33.5048 206.922 34.1249 208.839 34.1249C210.778 34.1249 212.627 33.719 214.386 32.9071V30.8436C214.386 29.1522 214.319 27.6186 214.183 26.2429C213.033 26.1076 211.748 26.04 210.327 26.04C210.237 25.8821 210.192 25.7017 210.192 25.4987L210.327 24.9236ZM235.271 22.488L235.17 30.7421C235.17 32.3884 235.7 33.2116 236.76 33.2116L237.978 33.1778C238.068 33.2905 238.113 33.4709 238.113 33.719L238.045 34.0911C236.309 34.4068 235.068 34.8692 234.324 35.4781C233.828 35.3428 233.4 35.0383 233.039 34.5647C232.7 34.0686 232.509 33.5499 232.464 33.0086C230.659 34.1137 228.867 34.9368 227.085 35.4781C226.318 35.4781 225.529 35.0496 224.717 34.1926C223.905 33.3131 223.499 32.2193 223.499 30.9113C223.499 30.2572 223.646 29.6709 223.939 29.1522C224.232 28.6109 224.582 28.2388 224.988 28.0358C226.656 27.2014 229.137 26.4685 232.43 25.837V22.6233C232.43 21.3829 232.227 20.4583 231.821 19.8494C231.438 19.2405 230.964 18.936 230.4 18.936C229.859 18.936 229.273 19.0375 228.641 19.2405C228.01 19.4209 227.559 19.7817 227.288 20.323C227.04 20.8642 226.916 21.631 226.916 22.6233C226.916 22.7135 226.758 22.815 226.442 22.9278C226.149 23.018 225.766 23.0631 225.292 23.0631C224.841 23.0631 224.525 22.9616 224.345 22.7586C224.187 22.5331 224.108 22.2061 224.108 21.7776C224.108 20.9657 224.694 20.0862 225.867 19.139C226.138 18.9586 226.927 18.6541 228.235 18.2256C229.566 17.7971 230.332 17.5829 230.535 17.5829C232.159 17.5829 233.354 18.0565 234.121 19.0037C234.888 19.9509 235.271 21.1123 235.271 22.488ZM226.51 30.7421C226.51 31.2834 226.724 31.8697 227.153 32.5012C227.581 33.1326 228.066 33.4484 228.607 33.4484C229.171 33.4484 229.814 33.2567 230.535 32.8733C231.257 32.4899 231.855 32.084 232.328 31.6555C232.396 30.3249 232.43 28.7913 232.43 27.0548C230.535 27.3029 228.867 27.8441 227.423 28.6786C226.814 28.9718 226.51 29.6596 226.51 30.7421ZM241.535 19.6126L240.216 19.6464C240.103 19.5336 240.047 19.3645 240.047 19.139L240.114 18.733C241.648 18.5301 242.9 18.2143 243.869 17.7858C244.185 17.6505 244.377 17.5829 244.444 17.5829C244.693 17.5829 244.974 18.0339 245.29 18.936C245.606 19.8155 245.798 20.6951 245.865 21.5746C247.557 19.8155 249.09 18.485 250.466 17.5829C251.368 17.5829 252.112 17.8535 252.699 18.3948C253.285 18.9135 253.578 19.5675 253.578 20.3568C253.578 21.2589 252.778 21.7099 251.176 21.7099C250.838 20.5147 250.263 19.917 249.451 19.917C248.91 19.917 247.782 20.8529 246.068 22.7248C245.933 24.4388 245.865 27.1676 245.865 30.9113C245.865 32.7831 246.012 33.7303 246.305 33.7528C246.824 33.8205 247.737 33.8543 249.045 33.8543C249.113 34.0122 249.147 34.1926 249.147 34.3956C249.147 34.5985 249.113 34.7677 249.045 34.903L245.256 34.8015C243.407 34.8015 241.772 34.8917 240.351 35.0721C240.238 34.9368 240.182 34.7451 240.182 34.4971L240.216 34.2264C241.411 34.0009 242.178 33.6513 242.516 33.1778C242.764 32.8169 242.945 32.2418 243.057 31.4525C243.17 30.6406 243.227 29.062 243.227 26.7165C243.227 24.3711 243.215 23.0743 243.193 22.8263C243.193 22.5782 243.182 22.2512 243.159 21.8452C243.136 21.4393 243.091 21.1348 243.024 20.9319C242.956 20.7289 242.855 20.5034 242.719 20.2553C242.494 19.8268 242.099 19.6126 241.535 19.6126ZM270.334 26.3782C270.334 29.3777 270.39 31.148 270.503 31.6893C270.684 32.7042 271.146 33.2116 271.89 33.2116C272.161 33.2116 272.567 33.2003 273.108 33.1778C273.198 33.3356 273.243 33.5273 273.243 33.7528L273.209 34.0911C271.676 34.3617 270.548 34.7339 269.827 35.2075L269.421 35.4781C269.082 35.4781 268.688 35.1623 268.237 34.5309C267.786 33.8994 267.56 33.189 267.56 32.3997C265.801 33.5273 263.704 34.5534 261.268 35.4781C259.622 35.1398 258.156 34.1249 256.87 32.4335C255.585 30.7196 254.942 28.7462 254.942 26.5136C254.942 25.0702 255.224 23.7847 255.788 22.6571C256.352 21.507 257.017 20.6387 257.784 20.0523C258.55 19.4434 259.385 18.936 260.287 18.5301C261.685 17.8986 262.824 17.5829 263.704 17.5829C263.794 17.5829 265.102 17.7633 267.628 18.1241V11.9674C267.628 9.9151 267.391 8.66345 266.917 8.21241C266.669 7.96433 266.342 7.81774 265.936 7.77264L264.718 7.63733C264.628 7.45691 264.583 7.32159 264.583 7.23138L264.718 6.79162C265.688 6.6112 266.624 6.3744 267.526 6.08122C268.428 5.74294 269.409 5.22424 270.469 4.52512C270.74 4.52512 270.92 4.63788 271.011 4.8634C270.56 6.57737 270.334 13.749 270.334 26.3782ZM257.784 25.2281C257.784 27.2803 258.302 29.1071 259.34 30.7083C260.4 32.2869 261.572 33.0763 262.858 33.0763C264.166 33.0763 265.756 32.3771 267.628 30.9789V21.2702C267.628 20.6387 266.861 20.1087 265.327 19.6802C263.794 19.2292 262.723 19.0037 262.114 19.0037C261.167 19.0037 260.208 19.6577 259.238 20.9657C258.269 22.2512 257.784 23.672 257.784 25.2281ZM284.83 33.0424C286.679 33.0424 288.314 32.5463 289.735 31.554C290.051 31.6668 290.231 31.9035 290.276 32.2644L286.623 34.8353C286.082 35.2638 284.875 35.4781 283.003 35.4781C281.131 35.4781 279.541 34.6436 278.233 32.9748C276.925 31.2834 276.271 29.1522 276.271 26.5812C276.271 24.0103 276.982 21.9806 278.403 20.4921C279.823 19.0037 281.515 18.0339 283.477 17.5829C285.191 17.5829 286.702 18.158 288.01 19.3081C288.799 19.9847 289.352 20.8642 289.667 21.9467C289.735 22.2174 290.051 22.3639 290.615 22.3865C290.75 22.5444 290.818 22.7135 290.818 22.8939C290.818 23.0518 290.795 23.2209 290.75 23.4014C286.781 24.326 282.879 24.9687 279.045 25.3296C279.045 28.2163 279.846 30.3813 281.447 31.8246C282.349 32.6365 283.477 33.0424 284.83 33.0424ZM286.961 22.7248C287.074 22.6571 287.13 22.5782 287.13 22.488C287.13 22.3752 286.984 22.0595 286.691 21.5408C286.42 20.9995 285.935 20.4357 285.236 19.8494C284.537 19.2405 283.804 18.936 283.037 18.936C282.27 18.936 281.707 19.0488 281.346 19.2743C280.083 20.1313 279.361 21.6874 279.181 23.9426C280.398 23.9426 281.785 23.8186 283.342 23.5705C284.898 23.2999 286.104 23.018 286.961 22.7248ZM295.134 19.6126L293.815 19.6464C293.725 19.5336 293.68 19.387 293.68 19.2066C293.68 19.0262 293.702 18.8683 293.747 18.733C295.281 18.5301 296.532 18.2143 297.502 17.7858C297.818 17.6505 298.01 17.5829 298.077 17.5829C298.28 17.5829 298.528 17.8986 298.821 18.5301C299.115 19.1615 299.363 19.8606 299.566 20.6274C301.843 19.3419 304.065 18.3271 306.23 17.5829C307.606 17.5829 308.666 18.1354 309.41 19.2405C310.154 20.323 310.526 21.7663 310.526 23.5705L310.458 28.0358C310.458 31.8021 310.628 33.719 310.966 33.7867C311.304 33.8318 311.936 33.8543 312.86 33.8543C312.95 34.0122 312.996 34.1813 312.996 34.3617C312.996 34.5422 312.95 34.7226 312.86 34.903L309.748 34.8015C307.876 34.8015 306.388 34.8917 305.283 35.0721C305.17 34.9368 305.114 34.7451 305.114 34.4971L305.147 34.2264C305.801 34.0686 306.309 33.8543 306.67 33.5837C307.03 33.2905 307.256 33.0199 307.346 32.7718C307.459 32.5012 307.549 32.1065 307.617 31.5878C307.684 31.0466 307.718 30.0092 307.718 28.4756V25.6679C307.718 24.0892 307.538 22.7586 307.177 21.6761C307.019 21.2476 306.839 20.9319 306.636 20.7289C306.14 20.1877 305.542 19.917 304.843 19.917C304.144 19.917 303.445 20.0523 302.746 20.323C302.046 20.5936 301.516 20.8417 301.156 21.0672C300.795 21.2927 300.287 21.631 299.633 22.082C299.543 23.8637 299.498 26.2542 299.498 29.2537C299.498 32.2306 299.645 33.7416 299.938 33.7867C300.254 33.8318 300.829 33.8543 301.663 33.8543C301.753 34.0122 301.798 34.1813 301.798 34.3617C301.798 34.5422 301.753 34.7226 301.663 34.903L298.788 34.8015C297.074 34.8015 295.585 34.8917 294.322 35.0721C294.21 34.9368 294.153 34.7451 294.153 34.4971L294.187 34.2264C294.841 34.0686 295.348 33.8543 295.709 33.5837C296.07 33.2905 296.296 33.0199 296.386 32.7718C296.499 32.5012 296.589 32.0163 296.656 31.3172C296.747 30.5955 296.792 29.062 296.792 26.7165C296.792 24.3711 296.78 23.0743 296.758 22.8263C296.758 22.5556 296.747 22.2174 296.724 21.8114C296.702 21.4055 296.656 21.101 296.589 20.8981C296.521 20.6951 296.42 20.4808 296.284 20.2553C296.059 19.8268 295.675 19.6126 295.134 19.6126Z" fill="#7D9672"/>
<path d="M18.0288 34.8353L11.8044 34.8015C7.67731 34.8015 4.57638 34.9368 2.50157 35.2075C2.3437 34.9368 2.26477 34.6211 2.26477 34.2603C2.98644 33.516 3.60663 32.7831 4.12533 32.0614C9.89871 24.2809 14.5783 17.5152 18.1641 11.7644H14.1047C10.5189 11.7644 7.76752 12.035 5.85058 12.5763C5.69271 13.1175 5.47847 14.2677 5.20784 16.0268C5.04997 16.117 4.85828 16.1621 4.63276 16.1621C4.40724 16.1621 4.15916 16.1395 3.88853 16.0944C3.82088 14.4707 3.62918 12.6327 3.31345 10.5804C3.31345 10.3323 3.50514 10.2083 3.88853 10.2083C3.88853 10.2083 7.04585 10.2872 13.3605 10.4451H15.4578C18.322 10.4451 20.8704 10.2985 23.1031 10.0053C23.2835 10.2308 23.3737 10.524 23.3737 10.8849C22.652 11.4036 20.363 14.4707 16.5065 20.0862C12.6501 25.7017 9.66191 30.1557 7.542 33.4484H10.9248C12.6163 33.4484 14.5219 33.3018 16.6418 33.0086C18.7617 32.7154 20.2389 32.4223 21.0733 32.1291C21.6146 31.4074 22.2461 30.3023 22.9677 28.8139C23.4639 28.8139 23.8924 28.9041 24.2532 29.0845C23.8247 30.7985 23.4752 32.5237 23.2045 34.2603C23.182 34.5309 22.9565 34.7 22.528 34.7677C22.122 34.8128 20.6223 34.8353 18.0288 34.8353ZM36.6447 33.0424C38.494 33.0424 40.129 32.5463 41.5498 31.554C41.8656 31.6668 42.046 31.9035 42.0911 32.2644L38.4376 34.8353C37.8964 35.2638 36.6898 35.4781 34.818 35.4781C32.9461 35.4781 31.3562 34.6436 30.0482 32.9748C28.7401 31.2834 28.0861 29.1522 28.0861 26.5812C28.0861 24.0103 28.7965 21.9806 30.2173 20.4921C31.6381 19.0037 33.3295 18.0339 35.2916 17.5829C37.0055 17.5829 38.5165 18.158 39.8246 19.3081C40.6139 19.9847 41.1664 20.8642 41.4822 21.9467C41.5498 22.2174 41.8656 22.3639 42.4294 22.3865C42.5647 22.5444 42.6323 22.7135 42.6323 22.8939C42.6323 23.0518 42.6098 23.2209 42.5647 23.4014C38.5955 24.326 34.6939 24.9687 30.8601 25.3296C30.8601 28.2163 31.6607 30.3813 33.2619 31.8246C34.164 32.6365 35.2916 33.0424 36.6447 33.0424ZM38.7759 22.7248C38.8887 22.6571 38.945 22.5782 38.945 22.488C38.945 22.3752 38.7984 22.0595 38.5053 21.5408C38.2346 20.9995 37.7498 20.4357 37.0506 19.8494C36.3515 19.2405 35.6186 18.936 34.8518 18.936C34.085 18.936 33.5212 19.0488 33.1604 19.2743C31.8975 20.1313 31.1758 21.6874 30.9954 23.9426C32.2132 23.9426 33.6002 23.8186 35.1563 23.5705C36.7124 23.2999 37.9189 23.018 38.7759 22.7248ZM46.9489 19.6126L45.6296 19.6464C45.5394 19.5336 45.4943 19.387 45.4943 19.2066C45.4943 19.0262 45.5168 18.8683 45.5619 18.733C47.0955 18.5301 48.3471 18.2143 49.3169 17.7858C49.6326 17.6505 49.8243 17.5829 49.892 17.5829C50.0949 17.5829 50.343 17.8986 50.6362 18.5301C50.9294 19.1615 51.1774 19.8606 51.3804 20.6274C53.6582 19.3419 55.8796 18.3271 58.0446 17.5829C59.4203 17.5829 60.4802 18.1354 61.2245 19.2405C61.9687 20.323 62.3408 21.7663 62.3408 23.5705L62.2731 28.0358C62.2731 31.8021 62.4423 33.719 62.7806 33.7867C63.1188 33.8318 63.7503 33.8543 64.675 33.8543C64.7652 34.0122 64.8103 34.1813 64.8103 34.3617C64.8103 34.5422 64.7652 34.7226 64.675 34.903L61.5627 34.8015C59.6909 34.8015 58.2025 34.8917 57.0974 35.0721C56.9846 34.9368 56.9283 34.7451 56.9283 34.4971L56.9621 34.2264C57.6161 34.0686 58.1235 33.8543 58.4844 33.5837C58.8452 33.2905 59.0707 33.0199 59.1609 32.7718C59.2737 32.5012 59.3639 32.1065 59.4316 31.5878C59.4992 31.0466 59.533 30.0092 59.533 28.4756V25.6679C59.533 24.0892 59.3526 22.7586 58.9918 21.6761C58.8339 21.2476 58.6535 20.9319 58.4505 20.7289C57.9544 20.1877 57.3567 19.917 56.6576 19.917C55.9585 19.917 55.2594 20.0523 54.5603 20.323C53.8612 20.5936 53.3312 20.8417 52.9703 21.0672C52.6095 21.2927 52.1021 21.631 51.4481 22.082C51.3579 23.8637 51.3127 26.2542 51.3127 29.2537C51.3127 32.2306 51.4593 33.7416 51.7525 33.7867C52.0682 33.8318 52.6433 33.8543 53.4778 33.8543C53.568 34.0122 53.6131 34.1813 53.6131 34.3617C53.6131 34.5422 53.568 34.7226 53.4778 34.903L50.6024 34.8015C48.8884 34.8015 47.3999 34.8917 46.137 35.0721C46.0242 34.9368 45.9679 34.7451 45.9679 34.4971L46.0017 34.2264C46.6557 34.0686 47.1631 33.8543 47.524 33.5837C47.8848 33.2905 48.1103 33.0199 48.2005 32.7718C48.3133 32.5012 48.4035 32.0163 48.4712 31.3172C48.5614 30.5955 48.6065 29.062 48.6065 26.7165C48.6065 24.3711 48.5952 23.0743 48.5726 22.8263C48.5726 22.5556 48.5614 22.2174 48.5388 21.8114C48.5163 21.4055 48.4712 21.101 48.4035 20.8981C48.3358 20.6951 48.2344 20.4808 48.0991 20.2553C47.8735 19.8268 47.4901 19.6126 46.9489 19.6126Z" fill="#7D9672"/>
</svg>
