<svg xmlns="http://www.w3.org/2000/svg" xmlns:xlink="http://www.w3.org/1999/xlink" width="189" zoomAndPan="magnify" viewBox="0 0 141.75 183.749994" height="245" preserveAspectRatio="xMidYMid meet" version="1.0"><defs><clipPath id="e1fb30dc8b"><path d="M 33 122 L 108 122 L 108 150.210938 L 33 150.210938 Z M 33 122 " clip-rule="nonzero"/></clipPath><clipPath id="d1fa49b209"><path d="M 0.0859375 60 L 3 60 L 3 63 L 0.0859375 63 Z M 0.0859375 60 " clip-rule="nonzero"/></clipPath><clipPath id="b237442b6d"><path d="M 138 60 L 141.5 60 L 141.5 63 L 138 63 Z M 138 60 " clip-rule="nonzero"/></clipPath><clipPath id="95b9f0aaa2"><path d="M 69 0.476562 L 72 0.476562 L 72 3 L 69 3 Z M 69 0.476562 " clip-rule="nonzero"/></clipPath><clipPath id="1317d75780"><path d="M 68.042969 170.734375 L 80.195312 170.734375 L 80.195312 182.710938 L 68.042969 182.710938 Z M 68.042969 170.734375 " clip-rule="nonzero"/></clipPath><clipPath id="1cf08d9acb"><path d="M 24.71875 170.734375 L 32.375 170.734375 L 32.375 182.710938 L 24.71875 182.710938 Z M 24.71875 170.734375 " clip-rule="nonzero"/></clipPath><clipPath id="c0b789d4bc"><path d="M 38.113281 170.734375 L 46.746094 170.734375 L 46.746094 182.710938 L 38.113281 182.710938 Z M 38.113281 170.734375 " clip-rule="nonzero"/></clipPath><clipPath id="f69ba3ce65"><path d="M 52.511719 170.734375 L 62.308594 170.734375 L 62.308594 182.710938 L 52.511719 182.710938 Z M 52.511719 170.734375 " clip-rule="nonzero"/></clipPath><clipPath id="42d9e19518"><path d="M 115.863281 170.734375 L 123.519531 170.734375 L 123.519531 182.710938 L 115.863281 182.710938 Z M 115.863281 170.734375 " clip-rule="nonzero"/></clipPath><clipPath id="ebc334441b"><path d="M 101.464844 170.734375 L 110.097656 170.734375 L 110.097656 182.710938 L 101.464844 182.710938 Z M 101.464844 170.734375 " clip-rule="nonzero"/></clipPath><clipPath id="d2a2d4b3c2"><path d="M 85.933594 170.734375 L 95.730469 170.734375 L 95.730469 182.710938 L 85.933594 182.710938 Z M 85.933594 170.734375 " clip-rule="nonzero"/></clipPath></defs><g clip-path="url(#e1fb30dc8b)"><path fill="#0c0d09" d="M 87.34375 146.558594 C 84.394531 146.507812 81.460938 146.601562 78.566406 147.261719 C 77.371094 147.535156 76.199219 147.886719 75.066406 148.355469 C 73.828125 148.867188 72.59375 149.394531 71.382812 149.964844 C 70.855469 150.210938 70.421875 150.207031 69.898438 149.957031 C 67.585938 148.835938 65.246094 147.796875 62.714844 147.257812 C 60.828125 146.851562 58.925781 146.601562 56.996094 146.578125 C 55.363281 146.554688 53.726562 146.492188 52.097656 146.578125 C 48.179688 146.785156 44.671875 145.617188 41.460938 143.480469 C 39.351562 142.082031 37.09375 141.039062 34.703125 140.246094 C 34.535156 140.191406 34.367188 140.132812 34.21875 140.046875 C 33.625 139.6875 33.542969 139.054688 34.042969 138.585938 C 34.25 138.390625 34.519531 138.25 34.773438 138.117188 C 36.792969 137.089844 38.957031 136.507812 41.152344 136.03125 C 42.007812 135.84375 42.003906 135.847656 41.867188 134.996094 C 41.683594 133.875 41.433594 132.757812 41.734375 131.621094 C 41.777344 131.449219 41.8125 131.28125 41.863281 131.113281 C 42.304688 129.648438 42.820312 129.253906 44.34375 129.398438 C 45.878906 129.542969 47.410156 129.765625 48.902344 130.167969 C 49.734375 130.394531 49.761719 130.394531 49.851562 129.507812 C 49.929688 128.753906 49.953125 127.996094 49.972656 127.242188 C 49.984375 126.773438 50.023438 126.308594 50.128906 125.851562 C 50.367188 124.804688 51.128906 124.558594 51.917969 125.277344 C 52.28125 125.609375 52.652344 125.945312 52.96875 126.324219 C 53.558594 127.015625 54.347656 127.382812 55.136719 127.761719 C 55.488281 127.933594 55.761719 127.921875 55.875 127.492188 C 56.34375 125.730469 57.542969 124.445312 58.691406 123.125 C 59.191406 122.550781 59.535156 122.457031 60.234375 122.710938 C 61.851562 123.304688 63.421875 123.996094 64.945312 124.800781 C 65.675781 125.1875 66.3125 125.6875 66.863281 126.300781 C 67.304688 126.792969 67.34375 126.789062 67.824219 126.316406 C 68.386719 125.765625 68.898438 125.164062 69.320312 124.496094 C 69.589844 124.074219 69.933594 123.722656 70.28125 123.367188 C 70.542969 123.105469 70.773438 123.109375 71.019531 123.386719 C 71.328125 123.738281 71.707031 124.039062 71.941406 124.429688 C 72.382812 125.167969 73.007812 125.742188 73.550781 126.382812 C 73.890625 126.78125 74.027344 126.789062 74.398438 126.375 C 75.453125 125.179688 76.820312 124.484375 78.253906 123.886719 C 79.171875 123.503906 80.085938 123.125 80.992188 122.726562 C 81.648438 122.433594 82.167969 122.582031 82.625 123.113281 C 83.765625 124.441406 84.960938 125.734375 85.441406 127.484375 C 85.566406 127.933594 85.8125 127.917969 86.160156 127.753906 C 86.957031 127.382812 87.730469 127.003906 88.324219 126.3125 C 88.679688 125.890625 89.082031 125.503906 89.515625 125.15625 C 90.203125 124.605469 90.871094 124.820312 91.144531 125.652344 C 91.257812 125.988281 91.265625 126.335938 91.289062 126.6875 C 91.34375 127.707031 91.398438 128.722656 91.464844 129.738281 C 91.507812 130.339844 91.574219 130.386719 92.167969 130.226562 C 93.832031 129.769531 95.535156 129.519531 97.246094 129.386719 C 98.453125 129.292969 98.90625 129.65625 99.34375 130.792969 C 99.792969 131.949219 99.738281 133.132812 99.574219 134.328125 C 99.355469 135.960938 99.003906 135.734375 100.820312 136.167969 C 102.800781 136.644531 104.773438 137.175781 106.605469 138.121094 C 107.101562 138.375 107.660156 138.613281 107.589844 139.304688 C 107.527344 139.925781 107 140.113281 106.492188 140.285156 C 104.105469 141.085938 101.855469 142.148438 99.746094 143.550781 C 97.75 144.882812 95.582031 145.902344 93.1875 146.324219 C 91.628906 146.597656 90.054688 146.578125 88.480469 146.5625 C 88.101562 146.554688 87.722656 146.558594 87.34375 146.558594 Z M 65.683594 142.230469 C 65.742188 142.214844 65.796875 142.199219 65.855469 142.183594 C 65.855469 141.867188 65.871094 141.550781 65.851562 141.234375 C 65.742188 139.34375 66.324219 137.65625 67.414062 136.15625 C 68.363281 134.851562 69.144531 133.457031 69.835938 132.007812 C 69.945312 131.773438 70.074219 131.535156 70.230469 131.332031 C 70.53125 130.953125 70.746094 130.960938 71.078125 131.335938 C 71.3125 131.601562 71.453125 131.925781 71.605469 132.238281 C 72.265625 133.609375 72.996094 134.925781 73.898438 136.15625 C 74.738281 137.296875 75.28125 138.570312 75.445312 140.007812 C 75.535156 140.796875 75.5 141.582031 75.492188 142.382812 C 75.628906 142.238281 75.722656 142.09375 75.792969 141.9375 C 76.714844 139.953125 77.507812 137.914062 78.5 135.964844 C 78.761719 135.445312 78.648438 134.945312 78.394531 134.460938 C 77.761719 133.257812 76.90625 132.230469 75.875 131.359375 C 74.40625 130.113281 72.960938 128.847656 71.941406 127.175781 C 71.683594 126.753906 71.386719 126.351562 71.074219 125.96875 C 70.746094 125.5625 70.585938 125.570312 70.253906 125.96875 C 70.050781 126.214844 69.859375 126.480469 69.6875 126.746094 C 68.652344 128.3125 67.433594 129.703125 65.972656 130.902344 C 64.773438 131.878906 63.714844 133.003906 62.964844 134.390625 C 62.632812 135.003906 62.585938 135.554688 62.925781 136.203125 C 63.738281 137.75 64.410156 139.367188 65.089844 140.976562 C 65.269531 141.402344 65.480469 141.8125 65.683594 142.230469 Z M 57.820312 144.835938 C 57.652344 144.6875 57.550781 144.585938 57.441406 144.5 C 55.285156 142.828125 53.464844 140.828125 51.824219 138.667969 C 51.386719 138.089844 50.898438 137.761719 50.195312 137.652344 C 48.289062 137.347656 46.378906 137.257812 44.453125 137.449219 C 41.929688 137.703125 39.414062 137.980469 37.058594 139.015625 C 36.894531 139.089844 36.632812 139.050781 36.617188 139.394531 C 38.773438 140.265625 40.777344 141.441406 42.765625 142.652344 C 45.367188 144.238281 48.230469 144.921875 51.261719 144.945312 C 53.183594 144.960938 55.105469 144.964844 57.027344 144.96875 C 57.253906 144.964844 57.488281 145.015625 57.820312 144.835938 Z M 83.660156 144.882812 C 83.878906 145.011719 84.140625 144.964844 84.394531 144.964844 C 86.402344 144.960938 88.410156 144.96875 90.421875 144.933594 C 93.300781 144.882812 96.023438 144.1875 98.492188 142.699219 C 100.492188 141.496094 102.476562 140.28125 104.648438 139.40625 C 104.695312 139.390625 104.726562 139.328125 104.820312 139.226562 C 103.867188 138.894531 102.988281 138.453125 102.023438 138.222656 C 99.691406 137.664062 97.316406 137.429688 94.929688 137.335938 C 93.589844 137.28125 92.257812 137.464844 90.933594 137.683594 C 90.4375 137.765625 90.023438 137.941406 89.695312 138.394531 C 88.03125 140.691406 86.109375 142.75 83.871094 144.503906 C 83.761719 144.589844 83.621094 144.660156 83.660156 144.882812 Z M 63.371094 144.652344 C 61.363281 142.992188 60.125 140.828125 59.074219 138.535156 C 58.757812 137.847656 58.480469 137.140625 58.175781 136.449219 C 57.136719 134.089844 55.902344 131.855469 54.277344 129.84375 C 53.582031 128.992188 52.707031 128.445312 51.664062 128.003906 C 51.59375 128.683594 51.527344 129.257812 51.472656 129.835938 C 51.242188 132.226562 51.414062 134.542969 52.667969 136.6875 C 52.992188 137.246094 53.367188 137.757812 53.734375 138.277344 C 55.109375 140.21875 56.695312 141.949219 58.703125 143.257812 C 59.246094 143.609375 59.828125 143.878906 60.460938 144.019531 C 61.417969 144.222656 62.394531 144.355469 63.371094 144.652344 Z M 78.035156 144.628906 C 78.816406 144.441406 79.570312 144.234375 80.34375 144.117188 C 81.402344 143.953125 82.335938 143.503906 83.195312 142.871094 C 85.007812 141.550781 86.390625 139.839844 87.753906 138.082031 C 89.992188 135.203125 90.253906 131.964844 89.6875 128.542969 C 89.613281 128.101562 89.496094 128.054688 89.097656 128.253906 C 88.167969 128.71875 87.414062 129.386719 86.777344 130.207031 C 85.0625 132.410156 83.808594 134.867188 82.734375 137.429688 C 82.003906 139.179688 81.207031 140.898438 80.035156 142.410156 C 79.429688 143.195312 78.675781 143.839844 78.035156 144.628906 Z M 70.632812 133.457031 C 70.207031 134.585938 69.457031 135.441406 68.792969 136.359375 C 68.574219 136.664062 68.359375 136.988281 68.21875 137.332031 C 66.976562 140.332031 66.933594 144.84375 70.273438 147.96875 C 70.546875 148.222656 70.761719 148.242188 71.011719 147.976562 C 72.1875 146.746094 73.273438 145.457031 73.570312 143.699219 C 73.664062 143.15625 73.792969 142.613281 73.851562 142.066406 C 74.050781 140.191406 73.691406 138.410156 72.804688 136.753906 C 72.503906 136.195312 72.0625 135.714844 71.667969 135.210938 C 71.261719 134.679688 71.070312 134.027344 70.632812 133.457031 Z M 61.664062 133.703125 C 61.789062 133.535156 61.859375 133.472656 61.890625 133.398438 C 62.503906 131.980469 63.449219 130.8125 64.558594 129.757812 C 65.109375 129.238281 65.625 128.683594 66.144531 128.132812 C 66.652344 127.59375 66.648438 127.496094 66.175781 126.972656 C 65.585938 126.316406 64.90625 125.789062 64.117188 125.378906 C 62.894531 124.746094 61.566406 124.375 60.320312 123.816406 C 59.941406 123.644531 59.722656 123.808594 59.523438 124.109375 C 58.957031 124.953125 58.363281 125.785156 57.808594 126.640625 C 57.574219 127.003906 57.378906 127.402344 57.210938 127.804688 C 56.917969 128.527344 56.957031 128.667969 57.613281 129.101562 C 58.648438 129.789062 59.484375 130.65625 60.175781 131.691406 C 60.625 132.359375 61.050781 133.054688 61.664062 133.703125 Z M 79.652344 133.828125 C 80.316406 132.875 80.890625 132.070312 81.445312 131.253906 C 81.859375 130.644531 82.347656 130.113281 82.933594 129.679688 C 83.238281 129.453125 83.550781 129.238281 83.855469 129.015625 C 84.386719 128.632812 84.414062 128.558594 84.179688 127.933594 C 84.101562 127.714844 84 127.503906 83.890625 127.296875 C 83.292969 126.128906 82.382812 125.160156 81.746094 124.011719 C 81.578125 123.714844 81.324219 123.65625 81 123.800781 C 79.675781 124.394531 78.273438 124.804688 76.992188 125.511719 C 76.296875 125.894531 75.671875 126.351562 75.136719 126.941406 C 74.632812 127.488281 74.617188 127.53125 75.160156 128.070312 C 75.882812 128.78125 76.550781 129.546875 77.285156 130.257812 C 78.289062 131.234375 79.027344 132.421875 79.652344 133.828125 Z M 50.367188 136.15625 C 50.386719 136.101562 50.429688 136.039062 50.417969 136 C 50.007812 134.714844 49.785156 133.402344 49.769531 132.054688 C 49.765625 131.71875 49.578125 131.507812 49.269531 131.421875 C 48.792969 131.285156 48.320312 131.136719 47.835938 131.050781 C 46.632812 130.835938 45.425781 130.648438 44.222656 130.453125 C 43.535156 130.34375 43.40625 130.40625 43.277344 131.109375 C 43.0625 132.253906 42.921875 133.40625 43.101562 134.578125 C 43.269531 135.664062 43.261719 135.675781 44.320312 135.671875 C 46.214844 135.667969 48.09375 135.765625 49.949219 136.191406 C 50.089844 136.21875 50.238281 136.265625 50.367188 136.15625 Z M 90.777344 136.210938 C 91.371094 136.246094 91.78125 136.078125 92.203125 136.011719 C 93.84375 135.75 95.492188 135.652344 97.152344 135.664062 C 98.019531 135.671875 98.15625 135.539062 98.210938 134.667969 C 98.253906 134.003906 98.238281 133.332031 98.242188 132.664062 C 98.246094 132.078125 98.144531 131.507812 98.007812 130.941406 C 97.914062 130.558594 97.707031 130.328125 97.257812 130.410156 C 95.714844 130.6875 94.164062 130.933594 92.625 131.234375 C 91.738281 131.410156 91.59375 131.550781 91.535156 132.4375 C 91.457031 133.691406 91.308594 134.921875 90.777344 136.210938 Z M 57.441406 131.667969 C 57.90625 132.652344 58.355469 133.554688 58.765625 134.472656 C 59.554688 136.21875 60.195312 138.03125 61.082031 139.738281 C 61.800781 141.125 62.742188 142.328125 63.902344 143.363281 C 64.019531 143.46875 64.125 143.652344 64.335938 143.550781 C 64.414062 143.390625 64.324219 143.265625 64.261719 143.140625 C 63.835938 142.277344 63.460938 141.394531 63.175781 140.480469 C 62.199219 137.332031 60.449219 134.652344 58.242188 132.25 C 58.039062 132.023438 57.863281 131.75 57.441406 131.667969 Z M 76.753906 143.832031 C 78.273438 142.632812 79.511719 141.242188 80.367188 139.507812 C 81.191406 137.832031 81.84375 136.089844 82.59375 134.382812 C 83.011719 133.4375 83.5 132.527344 83.992188 131.523438 C 83.636719 131.644531 83.472656 131.855469 83.304688 132.046875 C 81.417969 134.125 79.691406 136.300781 78.710938 138.988281 C 78.117188 140.621094 77.613281 142.296875 76.753906 143.832031 Z M 76.753906 143.832031 " fill-opacity="1" fill-rule="nonzero"/></g><path fill="#0c0d09" d="M 124.269531 113.992188 C 124.910156 112.785156 125.265625 111.585938 125.640625 110.402344 C 125.710938 110.179688 125.746094 109.945312 125.824219 109.726562 C 126.378906 108.105469 126.179688 106.511719 125.667969 104.933594 C 125.21875 103.546875 124.71875 102.183594 124.414062 100.753906 C 123.917969 98.433594 124.160156 96.183594 124.785156 93.933594 C 125.496094 91.367188 126.863281 89.203125 128.707031 87.316406 C 129.5 86.507812 130.3125 85.71875 131.121094 84.921875 C 131.558594 84.492188 132.074219 84.574219 132.308594 85.136719 C 132.421875 85.398438 132.464844 85.699219 132.507812 85.984375 C 132.683594 87.109375 132.972656 88.207031 133.398438 89.265625 C 134.742188 92.617188 134.390625 95.886719 132.898438 99.089844 C 132.578125 99.78125 132.066406 100.351562 131.5625 100.914062 C 130.707031 101.871094 129.863281 102.835938 129.003906 103.785156 C 128.691406 104.128906 128.507812 104.5 128.539062 104.964844 C 128.582031 105.625 128.308594 106.273438 128.414062 106.914062 C 128.5625 106.980469 128.640625 106.945312 128.703125 106.878906 C 130.496094 105.058594 132.726562 104.140625 135.199219 103.742188 C 136.152344 103.585938 137.085938 103.378906 138.011719 103.113281 C 139.117188 102.796875 139.664062 103.191406 139.789062 104.347656 C 139.828125 104.703125 139.816406 105.054688 139.726562 105.390625 C 138.96875 108.199219 137.582031 110.472656 134.644531 111.480469 C 133.066406 112.019531 131.425781 112.304688 129.832031 112.769531 C 128.675781 113.109375 127.589844 113.570312 126.5625 114.199219 C 126.171875 114.441406 125.894531 114.734375 125.683594 115.136719 C 124.625 117.15625 123.390625 119.058594 121.910156 120.792969 C 120.710938 122.195312 119.355469 123.425781 117.882812 124.535156 C 117.578125 124.765625 117.242188 124.945312 116.878906 125.054688 C 116.605469 125.136719 116.28125 125.285156 116.078125 124.976562 C 115.867188 124.660156 116.144531 124.441406 116.34375 124.234375 C 116.425781 124.148438 116.527344 124.085938 116.609375 124.003906 C 118.414062 122.230469 120.210938 120.441406 121.71875 118.390625 C 122.789062 116.9375 122.789062 115.230469 122.867188 113.546875 C 122.882812 113.210938 122.644531 113.011719 122.359375 112.902344 C 121.949219 112.753906 121.53125 112.621094 121.113281 112.507812 C 120.746094 112.40625 120.371094 112.355469 120.003906 112.261719 C 117.855469 111.703125 116.5 109.996094 116.390625 107.765625 C 116.3125 106.199219 116.667969 104.695312 116.972656 103.183594 C 117.175781 102.15625 117.445312 101.140625 117.683594 100.117188 C 117.773438 99.738281 117.988281 99.425781 118.203125 99.113281 C 118.28125 98.992188 118.382812 98.882812 118.554688 98.902344 C 118.730469 98.925781 118.828125 99.074219 118.820312 99.203125 C 118.777344 100.191406 119.515625 100.679688 120.105469 101.273438 C 120.703125 101.875 121.265625 102.503906 121.84375 103.121094 C 122.96875 104.328125 123.558594 105.800781 123.980469 107.367188 C 124.507812 109.3125 124.507812 111.277344 124.238281 113.257812 C 124.214844 113.429688 124.191406 113.601562 124.175781 113.773438 C 124.175781 113.796875 124.199219 113.828125 124.269531 113.992188 Z M 128.863281 102.132812 C 129.914062 100.835938 130.980469 99.640625 131.625 98.152344 C 132.484375 96.179688 132.890625 94.140625 132.292969 92.023438 C 131.949219 90.792969 131.464844 89.601562 131.039062 88.398438 C 131.027344 88.367188 130.941406 88.359375 130.875 88.335938 C 130.824219 88.398438 130.753906 88.457031 130.71875 88.53125 C 130.015625 90.136719 129.398438 91.773438 129.058594 93.492188 C 128.507812 96.289062 128.671875 99.117188 128.730469 101.9375 C 128.730469 101.960938 128.761719 101.984375 128.863281 102.132812 Z M 128.34375 111.539062 C 128.511719 111.703125 128.628906 111.65625 128.730469 111.609375 C 129.96875 111.074219 131.285156 110.832031 132.578125 110.480469 C 133.558594 110.214844 134.535156 109.921875 135.425781 109.402344 C 137.007812 108.476562 138.039062 107.105469 138.554688 105.367188 C 138.792969 104.570312 138.527344 104.351562 137.722656 104.570312 C 136.460938 104.921875 135.199219 105.273438 133.941406 105.632812 C 132.605469 106.015625 131.421875 106.683594 130.371094 107.585938 C 129.984375 107.914062 129.617188 108.265625 129.316406 108.902344 C 130.480469 108.28125 131.480469 107.769531 132.546875 107.382812 C 132.871094 107.265625 133.203125 107.128906 133.5625 107.1875 C 133.855469 107.234375 133.941406 107.46875 133.742188 107.691406 C 133.523438 107.933594 133.222656 108.0625 132.941406 108.207031 C 131.824219 108.777344 130.738281 109.390625 129.746094 110.164062 C 129.226562 110.578125 128.769531 111.042969 128.34375 111.539062 Z M 118.570312 102.589844 C 118.082031 104.335938 117.769531 106.046875 117.855469 107.804688 C 117.910156 108.941406 118.332031 109.902344 119.277344 110.566406 C 120.292969 111.285156 121.480469 111.542969 122.652344 111.839844 C 122.835938 111.488281 122.691406 111.214844 122.613281 110.945312 C 122.433594 110.328125 122.171875 109.746094 121.855469 109.1875 C 120.867188 107.445312 119.839844 105.722656 119.0625 103.871094 C 118.882812 103.445312 118.730469 103.015625 118.570312 102.589844 Z M 126.441406 103.75 C 126.777344 103.296875 126.699219 102.964844 126.707031 102.65625 C 126.730469 101.140625 126.707031 99.625 126.761719 98.113281 C 126.855469 95.382812 127.355469 92.738281 128.554688 90.257812 C 128.625 90.109375 128.761719 89.972656 128.648438 89.660156 C 127.75 91.101562 126.839844 92.4375 126.179688 93.917969 C 125.476562 95.507812 125.058594 97.160156 125.207031 98.921875 C 125.304688 100.089844 125.597656 101.210938 125.949219 102.324219 C 126.089844 102.757812 126.25 103.1875 126.441406 103.75 Z M 120.109375 103.390625 C 120.945312 105.644531 122.34375 107.589844 123.496094 109.671875 C 123.253906 107.105469 121.941406 105.109375 120.109375 103.390625 Z M 120.109375 103.390625 " fill-opacity="1" fill-rule="nonzero"/><path fill="#0c0d09" d="M 17.214844 114.105469 C 17.144531 113.496094 17.105469 112.976562 17.03125 112.460938 C 16.675781 110.089844 17.082031 107.824219 17.925781 105.605469 C 18.480469 104.144531 19.542969 103.058594 20.539062 101.925781 C 20.886719 101.535156 21.277344 101.179688 21.65625 100.816406 C 22.105469 100.390625 22.550781 99.976562 22.523438 99.277344 C 22.515625 99.105469 22.582031 98.914062 22.800781 98.894531 C 22.964844 98.875 23.0625 99.007812 23.140625 99.132812 C 23.335938 99.453125 23.539062 99.769531 23.636719 100.144531 C 24.171875 102.203125 24.625 104.28125 24.933594 106.386719 C 25.089844 107.453125 24.949219 108.480469 24.542969 109.472656 C 23.9375 110.949219 22.859375 111.894531 21.304688 112.273438 C 20.65625 112.433594 19.992188 112.546875 19.355469 112.75 C 18.621094 112.980469 18.511719 113.1875 18.496094 113.96875 C 18.480469 114.90625 18.613281 115.828125 18.8125 116.742188 C 18.914062 117.203125 19.105469 117.621094 19.367188 118.015625 C 20.078125 119.089844 20.890625 120.078125 21.777344 121.003906 C 22.765625 122.03125 23.785156 123.035156 24.789062 124.050781 C 24.933594 124.195312 25.089844 124.332031 25.195312 124.503906 C 25.410156 124.84375 25.234375 125.140625 24.824219 125.136719 C 24.554688 125.132812 24.308594 125.03125 24.074219 124.914062 C 23.679688 124.722656 23.328125 124.464844 22.984375 124.1875 C 20.097656 121.886719 17.742188 119.113281 16.058594 115.839844 C 15.347656 114.457031 14.242188 113.777344 12.9375 113.25 C 11.691406 112.753906 10.378906 112.453125 9.074219 112.148438 C 8.222656 111.949219 7.386719 111.703125 6.558594 111.414062 C 4.957031 110.851562 3.71875 109.84375 2.847656 108.382812 C 2.367188 107.578125 2.003906 106.722656 1.699219 105.839844 C 1.488281 105.21875 1.453125 104.578125 1.609375 103.941406 C 1.78125 103.226562 2.273438 102.8125 2.949219 103.027344 C 4.953125 103.65625 7.089844 103.726562 9.050781 104.515625 C 10.257812 105.003906 11.339844 105.664062 12.273438 106.566406 C 12.476562 106.761719 12.625 107.027344 13 107.144531 C 12.90625 106.234375 12.8125 105.375 12.726562 104.519531 C 12.695312 104.175781 12.492188 103.933594 12.277344 103.695312 C 11.304688 102.609375 10.34375 101.515625 9.367188 100.4375 C 8.808594 99.820312 8.394531 99.132812 8.117188 98.351562 C 7.589844 96.863281 7.105469 95.378906 7.101562 93.769531 C 7.101562 92.351562 7.332031 90.984375 7.800781 89.65625 C 8.273438 88.308594 8.75 86.964844 8.898438 85.527344 C 8.9375 85.136719 9.074219 84.773438 9.511719 84.660156 C 9.917969 84.558594 10.160156 84.800781 10.378906 85.101562 C 10.515625 85.289062 10.675781 85.46875 10.859375 85.605469 C 12.003906 86.480469 12.855469 87.632812 13.816406 88.691406 C 15.605469 90.667969 16.414062 93.085938 16.9375 95.617188 C 17.449219 98.101562 17.128906 100.546875 16.355469 102.9375 C 16.09375 103.742188 15.796875 104.535156 15.550781 105.34375 C 15.148438 106.707031 15.058594 108.074219 15.441406 109.476562 C 15.816406 110.859375 16.257812 112.210938 16.824219 113.523438 C 16.898438 113.710938 16.933594 113.921875 17.214844 114.105469 Z M 12.652344 102.296875 C 12.8125 97.363281 12.800781 92.617188 10.359375 88.160156 C 9.9375 89.359375 9.550781 90.457031 9.171875 91.554688 C 8.675781 92.992188 8.632812 94.441406 8.957031 95.9375 C 9.5 98.414062 10.886719 100.367188 12.652344 102.296875 Z M 11.960938 108.757812 C 11.628906 108.203125 11.21875 107.839844 10.8125 107.484375 C 8.648438 105.59375 5.855469 105.265625 3.246094 104.5 C 2.96875 104.417969 2.808594 104.59375 2.777344 104.871094 C 2.730469 105.320312 2.84375 105.738281 3.03125 106.140625 C 4.007812 108.257812 5.632812 109.597656 7.867188 110.238281 C 9.488281 110.703125 11.152344 111.027344 12.738281 111.621094 C 12.765625 111.632812 12.820312 111.570312 12.890625 111.519531 C 12.070312 110.46875 11.039062 109.679688 9.894531 109.03125 C 9.261719 108.671875 8.617188 108.335938 7.980469 107.976562 C 7.738281 107.839844 7.355469 107.71875 7.488281 107.371094 C 7.621094 107.035156 7.992188 107.167969 8.261719 107.242188 C 9.257812 107.5 10.160156 107.984375 11.078125 108.429688 C 11.324219 108.546875 11.550781 108.75 11.960938 108.757812 Z M 22.820312 102.394531 C 22.589844 103.015625 22.433594 103.472656 22.246094 103.917969 C 21.5 105.6875 20.53125 107.339844 19.582031 109.003906 C 19.160156 109.738281 18.8125 110.5 18.621094 111.328125 C 18.527344 111.730469 18.636719 111.851562 19 111.753906 C 19.8125 111.535156 20.632812 111.339844 21.398438 110.976562 C 22.527344 110.433594 23.175781 109.546875 23.429688 108.320312 C 23.671875 107.152344 23.433594 106.007812 23.300781 104.855469 C 23.214844 104.089844 23.128906 103.316406 22.820312 102.394531 Z M 12.558594 89.441406 C 12.515625 89.847656 12.65625 90.007812 12.742188 90.183594 C 13.875 92.554688 14.40625 95.054688 14.539062 97.675781 C 14.636719 99.5625 14.644531 101.449219 14.675781 103.339844 C 14.679688 103.511719 14.714844 103.679688 14.738281 103.855469 C 15.1875 102.851562 15.515625 101.863281 15.800781 100.855469 C 16.464844 98.503906 16.171875 96.246094 15.214844 94.046875 C 14.519531 92.476562 13.539062 91.0625 12.558594 89.441406 Z M 17.894531 109.484375 C 19.078125 107.417969 20.476562 105.484375 21.304688 103.246094 C 19.558594 104.996094 18.109375 106.910156 17.894531 109.484375 Z M 17.894531 109.484375 " fill-opacity="1" fill-rule="nonzero"/><path fill="#0c0d09" d="M 74.460938 113.832031 C 73.480469 113.867188 72.402344 113.847656 71.328125 113.976562 C 70.894531 114.03125 70.449219 114.03125 70.019531 113.984375 C 68.769531 113.84375 67.515625 113.835938 66.261719 113.84375 C 64.457031 113.851562 62.648438 113.773438 60.863281 113.503906 C 58.648438 113.167969 56.683594 112.296875 55.074219 110.679688 C 53.773438 109.375 52.648438 107.925781 51.613281 106.40625 C 50.835938 105.265625 49.984375 104.210938 48.839844 103.410156 C 48.429688 103.128906 47.976562 102.792969 48.183594 102.210938 C 48.398438 101.605469 48.976562 101.730469 49.460938 101.730469 C 49.664062 101.730469 49.875 101.726562 50.070312 101.765625 C 52.199219 102.1875 54.179688 101.628906 56.125 100.863281 C 57.289062 100.40625 58.4375 99.910156 59.585938 99.398438 C 62.34375 98.171875 64.96875 98.417969 67.480469 100.074219 C 67.773438 100.265625 68.0625 100.460938 68.355469 100.652344 C 69.84375 101.613281 71.347656 101.632812 72.859375 100.710938 C 73.285156 100.453125 73.695312 100.175781 74.105469 99.902344 C 74.769531 99.46875 75.488281 99.167969 76.25 98.9375 C 78.292969 98.304688 80.21875 98.707031 82.105469 99.554688 C 83.515625 100.183594 84.929688 100.808594 86.398438 101.289062 C 87.914062 101.785156 89.4375 102.085938 91.039062 101.789062 C 91.464844 101.710938 91.914062 101.734375 92.347656 101.730469 C 92.6875 101.730469 92.992188 101.816406 93.128906 102.171875 C 93.253906 102.519531 93.113281 102.804688 92.878906 103.046875 C 92.71875 103.214844 92.539062 103.367188 92.355469 103.507812 C 91.394531 104.238281 90.578125 105.105469 89.910156 106.105469 C 89.050781 107.394531 88.09375 108.605469 87.105469 109.789062 C 85.300781 111.941406 83 113.183594 80.21875 113.542969 C 78.339844 113.78125 76.449219 113.867188 74.460938 113.832031 Z M 88.558594 105.003906 C 88.433594 104.996094 88.347656 104.972656 88.269531 104.984375 C 85.527344 105.460938 82.789062 105.636719 80.019531 105.179688 C 78.578125 104.941406 77.175781 105.210938 75.910156 106.007812 C 75.589844 106.207031 75.25 106.378906 74.90625 106.539062 C 73.648438 107.136719 72.351562 107.503906 70.933594 107.269531 C 70.683594 107.226562 70.414062 107.269531 70.15625 107.308594 C 69.75 107.375 69.347656 107.347656 68.9375 107.304688 C 67.660156 107.175781 66.53125 106.632812 65.441406 106.007812 C 64.039062 105.207031 62.566406 104.957031 60.976562 105.21875 C 59.625 105.445312 58.253906 105.570312 56.886719 105.417969 C 55.617188 105.273438 54.324219 105.339844 53.074219 104.988281 C 53 104.96875 52.910156 105.019531 52.835938 105.035156 C 52.738281 105.289062 52.902344 105.441406 53.015625 105.597656 C 54.242188 107.265625 55.488281 108.917969 56.960938 110.378906 C 57.726562 111.144531 58.617188 111.769531 59.707031 112.011719 C 61.582031 112.433594 63.492188 112.675781 65.417969 112.722656 C 68.738281 112.808594 72.058594 112.808594 75.375 112.734375 C 77.300781 112.691406 79.203125 112.457031 81.101562 112.136719 C 82.46875 111.910156 83.550781 111.199219 84.480469 110.261719 C 85.917969 108.8125 87.152344 107.183594 88.359375 105.542969 C 88.464844 105.40625 88.601562 105.277344 88.558594 105.003906 Z M 88.457031 103.308594 C 86.964844 103.277344 85.625 102.796875 84.308594 102.238281 C 83.691406 101.976562 83.109375 101.636719 82.507812 101.347656 C 81.898438 101.0625 81.292969 100.78125 80.671875 100.53125 C 78.746094 99.75 76.90625 100.035156 75.140625 101.046875 C 74.6875 101.308594 74.246094 101.597656 73.789062 101.851562 C 73.203125 102.179688 72.589844 102.453125 71.90625 102.511719 C 70.007812 102.671875 68.179688 102.503906 66.59375 101.289062 C 66.410156 101.148438 66.199219 101.039062 65.992188 100.929688 C 64.496094 100.144531 62.9375 99.808594 61.269531 100.328125 C 60.460938 100.582031 59.664062 100.867188 58.925781 101.28125 C 57.011719 102.363281 55.03125 103.222656 52.738281 103.261719 C 52.945312 103.542969 53.21875 103.558594 53.457031 103.617188 C 56.050781 104.242188 58.648438 104.644531 61.308594 103.964844 C 62.964844 103.546875 64.519531 103.828125 66.007812 104.699219 C 69.121094 106.511719 72.28125 106.449219 75.382812 104.667969 C 76.828125 103.839844 78.328125 103.578125 79.921875 103.9375 C 81.589844 104.3125 83.25 104.464844 84.945312 104.183594 C 86.140625 103.984375 87.34375 103.824219 88.457031 103.308594 Z M 88.457031 103.308594 " fill-opacity="1" fill-rule="nonzero"/><path fill="#0c0d09" d="M 73.988281 55.9375 C 73.980469 57.835938 74.097656 59.519531 74.25 61.199219 C 74.378906 62.589844 74.324219 63.992188 74.460938 65.390625 C 74.664062 67.449219 74.847656 69.5 75.3125 71.523438 C 75.707031 73.226562 76.148438 74.914062 76.597656 76.605469 C 77.261719 79.125 77.289062 81.675781 76.601562 84.207031 C 75.988281 86.472656 74.433594 87.871094 72.367188 88.792969 C 72.078125 88.925781 71.765625 89.023438 71.4375 88.96875 C 71.257812 88.9375 71.089844 88.863281 71.058594 88.664062 C 71.027344 88.445312 71.179688 88.359375 71.355469 88.292969 C 71.410156 88.277344 71.46875 88.261719 71.523438 88.246094 C 73.542969 87.75 74.671875 86.273438 75.324219 84.46875 C 76.394531 81.492188 76.320312 78.460938 75.390625 75.449219 C 74.832031 73.640625 74.246094 71.835938 74.03125 69.941406 C 73.851562 68.351562 73.730469 66.753906 73.585938 65.160156 C 73.441406 63.539062 73.296875 61.914062 73.152344 60.289062 C 73.125 60 73.09375 59.707031 73.082031 59.417969 C 72.960938 56.007812 73.167969 52.601562 73.265625 49.199219 C 73.355469 46.074219 74.226562 43.113281 75.273438 40.195312 C 77.171875 34.886719 80.28125 30.371094 84.566406 26.757812 C 89.152344 22.890625 94.34375 20.125 100.394531 19.253906 C 102.871094 18.894531 105.335938 19 107.789062 19.398438 C 110.761719 19.878906 113.648438 20.6875 116.433594 21.839844 C 118.667969 22.761719 120.59375 24.183594 122.441406 25.710938 C 124.632812 27.527344 126.519531 29.625 127.996094 32.0625 C 129.246094 34.128906 129.953125 36.410156 130.507812 38.746094 C 130.554688 38.941406 130.566406 39.15625 130.539062 39.351562 C 130.496094 39.660156 130.304688 39.882812 129.984375 39.953125 C 129.691406 40.019531 129.476562 39.871094 129.308594 39.652344 C 129.089844 39.371094 128.957031 39.042969 128.871094 38.707031 C 128.019531 35.34375 126.191406 32.539062 123.953125 29.945312 C 122.039062 27.722656 119.898438 25.773438 117.359375 24.273438 C 115.257812 23.03125 112.949219 22.300781 110.652344 21.558594 C 109.238281 21.105469 107.800781 20.710938 106.328125 20.492188 C 103.199219 20.027344 100.109375 20.242188 97.0625 21.070312 C 92.800781 22.238281 89.015625 24.328125 85.683594 27.191406 C 80.574219 31.589844 77.179688 37.09375 75.382812 43.601562 C 74.59375 46.457031 74.160156 49.351562 74.128906 52.308594 C 74.109375 53.585938 73.898438 54.863281 73.988281 55.9375 Z M 73.988281 55.9375 " fill-opacity="1" fill-rule="nonzero"/><path fill="#0c0d09" d="M 68.21875 55.597656 C 68.21875 56.238281 68.210938 56.882812 68.21875 57.523438 C 68.257812 59.914062 67.980469 62.289062 67.769531 64.667969 C 67.636719 66.203125 67.550781 67.746094 67.382812 69.28125 C 67.183594 71.089844 66.765625 72.839844 66.207031 74.5625 C 65.804688 75.8125 65.449219 77.070312 65.316406 78.382812 C 65.09375 80.65625 65.273438 82.890625 66.214844 84.980469 C 66.925781 86.558594 68.03125 87.832031 69.835938 88.265625 C 69.949219 88.292969 70.066406 88.328125 70.160156 88.386719 C 70.261719 88.445312 70.332031 88.542969 70.308594 88.675781 C 70.285156 88.800781 70.207031 88.878906 70.097656 88.929688 C 69.835938 89.039062 69.574219 88.988281 69.328125 88.898438 C 67.421875 88.199219 65.882812 87.0625 65.054688 85.144531 C 64.578125 84.042969 64.359375 82.871094 64.296875 81.664062 C 64.183594 79.339844 64.53125 77.097656 65.195312 74.859375 C 66.003906 72.152344 66.523438 69.375 66.769531 66.550781 C 66.925781 64.75 66.925781 62.9375 67.113281 61.144531 C 67.410156 58.265625 67.304688 55.375 67.25 52.496094 C 67.140625 47.023438 65.910156 41.796875 63.359375 36.945312 C 59.734375 30.046875 54.367188 24.964844 47.097656 22.007812 C 43.671875 20.617188 40.09375 20.050781 36.398438 20.308594 C 34.496094 20.441406 32.667969 20.945312 30.859375 21.507812 C 29.578125 21.90625 28.3125 22.355469 27.054688 22.8125 C 24.304688 23.824219 21.945312 25.433594 19.804688 27.421875 C 17.78125 29.300781 16.058594 31.410156 14.566406 33.71875 C 13.660156 35.125 13.085938 36.6875 12.59375 38.28125 C 12.46875 38.699219 12.351562 39.125 12.128906 39.5 C 11.953125 39.792969 11.71875 40.019531 11.347656 39.945312 C 10.9375 39.863281 10.796875 39.535156 10.800781 39.160156 C 10.800781 38.902344 10.851562 38.640625 10.90625 38.382812 C 11.96875 33.503906 14.492188 29.515625 18.257812 26.277344 C 19.054688 25.589844 19.867188 24.9375 20.703125 24.296875 C 22.914062 22.613281 25.394531 21.503906 28.042969 20.714844 C 30.761719 19.902344 33.503906 19.246094 36.34375 19.074219 C 38.566406 18.933594 40.761719 19.160156 42.9375 19.625 C 47.601562 20.617188 51.65625 22.875 55.4375 25.664062 C 59.03125 28.320312 61.785156 31.726562 63.972656 35.605469 C 65.820312 38.886719 66.957031 42.429688 67.730469 46.097656 C 67.917969 47.011719 67.988281 47.941406 68.035156 48.875 C 68.140625 51.113281 68.230469 53.355469 68.21875 55.597656 Z M 68.21875 55.597656 " fill-opacity="1" fill-rule="nonzero"/><path fill="#0c0d09" d="M 16.542969 45.28125 C 16.921875 45.324219 17.292969 45.410156 17.617188 45.617188 C 20.121094 47.210938 22.933594 47.941406 25.792969 48.554688 C 27.679688 48.960938 29.597656 49.105469 31.511719 49.230469 C 33.574219 49.371094 35.640625 49.523438 37.707031 49.402344 C 39.570312 49.296875 41.433594 49.269531 43.296875 49.277344 C 46.160156 49.285156 48.988281 49.605469 51.765625 50.335938 C 52.847656 50.617188 53.839844 51.097656 54.820312 51.613281 C 54.972656 51.695312 55.121094 51.792969 55.246094 51.914062 C 55.457031 52.101562 55.550781 52.347656 55.460938 52.625 C 55.363281 52.9375 55.113281 53.097656 54.804688 53.105469 C 54.578125 53.109375 54.339844 53.066406 54.117188 53.003906 C 51.964844 52.4375 49.78125 52.542969 47.601562 52.753906 C 44.328125 53.066406 41.085938 53.722656 37.792969 53.765625 C 35.144531 53.804688 32.488281 53.621094 29.914062 52.910156 C 27.472656 52.238281 25.03125 51.566406 22.695312 50.550781 C 21.007812 49.816406 19.378906 48.984375 17.855469 47.953125 C 17.398438 47.644531 16.914062 47.367188 16.453125 47.066406 C 16.257812 46.9375 16.078125 46.789062 15.914062 46.621094 C 15.683594 46.382812 15.527344 46.09375 15.679688 45.75 C 15.835938 45.382812 16.167969 45.285156 16.542969 45.28125 Z M 16.542969 45.28125 " fill-opacity="1" fill-rule="nonzero"/><path fill="#0c0d09" d="M 99.097656 49.285156 C 100.679688 49.253906 102.101562 49.339844 103.527344 49.410156 C 105.59375 49.511719 107.664062 49.371094 109.722656 49.238281 C 112.132812 49.089844 114.535156 48.851562 116.894531 48.261719 C 119.277344 47.664062 121.617188 46.984375 123.699219 45.625 C 124.070312 45.382812 124.492188 45.25 124.941406 45.289062 C 125.605469 45.347656 125.882812 45.921875 125.53125 46.488281 C 125.390625 46.71875 125.1875 46.878906 124.964844 47.019531 C 123.875 47.699219 122.816406 48.421875 121.695312 49.042969 C 119.1875 50.429688 116.550781 51.511719 113.777344 52.246094 C 112.148438 52.679688 110.550781 53.246094 108.859375 53.4375 C 106.195312 53.734375 103.539062 53.871094 100.851562 53.597656 C 98.421875 53.347656 96.007812 52.921875 93.570312 52.730469 C 91.425781 52.558594 89.269531 52.441406 87.144531 53.011719 C 86.398438 53.214844 86.015625 53.074219 85.878906 52.644531 C 85.753906 52.261719 85.980469 51.898438 86.574219 51.566406 C 88.253906 50.640625 90.058594 50.105469 91.945312 49.8125 C 94.367188 49.429688 96.796875 49.167969 99.097656 49.285156 Z M 99.097656 49.285156 " fill-opacity="1" fill-rule="nonzero"/><path fill="#0c0d09" d="M 34.589844 26.730469 C 31.949219 26.605469 28.929688 27.121094 26.039062 28.351562 C 23.433594 29.460938 21.101562 30.972656 19.066406 32.9375 C 18.941406 33.058594 18.820312 33.1875 18.679688 33.292969 C 18.503906 33.425781 18.296875 33.648438 18.078125 33.410156 C 17.875 33.199219 18.023438 32.960938 18.167969 32.78125 C 18.992188 31.800781 19.816406 30.808594 20.808594 29.992188 C 24.082031 27.28125 27.820312 25.667969 32.078125 25.285156 C 35.109375 25.015625 38.125 24.992188 41.125 25.597656 C 46.292969 26.640625 50.582031 29.117188 53.8125 33.339844 C 55.269531 35.242188 56.601562 37.207031 57.453125 39.476562 C 58.410156 42.027344 58.550781 44.644531 58.332031 47.308594 C 58.222656 48.613281 57.96875 49.90625 57.617188 51.171875 C 57.578125 51.3125 57.558594 51.457031 57.511719 51.59375 C 57.449219 51.789062 57.375 52.015625 57.109375 51.960938 C 56.867188 51.914062 56.832031 51.6875 56.820312 51.480469 C 56.8125 51.308594 56.816406 51.132812 56.84375 50.957031 C 57.132812 49.050781 57.148438 47.132812 57.167969 45.207031 C 57.195312 42.382812 56.40625 39.808594 54.960938 37.40625 C 53.242188 34.546875 51.128906 32.054688 48.300781 30.230469 C 45.492188 28.417969 42.429688 27.300781 39.089844 26.925781 C 37.757812 26.78125 36.421875 26.753906 34.589844 26.730469 Z M 34.589844 26.730469 " fill-opacity="1" fill-rule="nonzero"/><path fill="#0c0d09" d="M 105.746094 25.117188 C 108.980469 25.089844 112.136719 25.46875 115.15625 26.71875 C 118.234375 28 120.800781 29.957031 122.941406 32.492188 C 123.164062 32.753906 123.617188 33.101562 123.242188 33.441406 C 122.945312 33.710938 122.605469 33.304688 122.367188 33.070312 C 120.882812 31.617188 119.253906 30.367188 117.414062 29.375 C 114.332031 27.710938 111.074219 26.757812 107.558594 26.734375 C 105.105469 26.71875 102.660156 26.726562 100.253906 27.25 C 95.890625 28.203125 92.132812 30.214844 89.15625 33.609375 C 87.550781 35.441406 86.199219 37.425781 85.230469 39.667969 C 84.511719 41.320312 84.203125 43.058594 84.132812 44.851562 C 84.0625 46.660156 84.203125 48.457031 84.40625 50.253906 C 84.453125 50.660156 84.457031 51.066406 84.464844 51.472656 C 84.472656 51.679688 84.449219 51.929688 84.207031 51.96875 C 83.902344 52.019531 83.835938 51.738281 83.777344 51.519531 C 83.667969 51.09375 83.585938 50.667969 83.488281 50.242188 C 82.859375 47.515625 82.652344 44.773438 83.179688 42.007812 C 83.519531 40.21875 84.140625 38.535156 85.054688 36.953125 C 86.238281 34.894531 87.652344 33.003906 89.277344 31.289062 C 91.128906 29.339844 93.394531 27.976562 95.851562 26.910156 C 99.011719 25.535156 102.335938 25.085938 105.746094 25.117188 Z M 105.746094 25.117188 " fill-opacity="1" fill-rule="nonzero"/><path fill="#0c0d09" d="M 75.378906 17.757812 C 75.359375 20.019531 73.691406 22.609375 70.664062 22.585938 C 67.492188 22.558594 65.984375 20.039062 65.914062 17.59375 C 65.859375 15.625 68.046875 12.714844 70.742188 12.71875 C 73.054688 12.722656 75.605469 15.640625 75.378906 17.757812 Z M 75.378906 17.757812 " fill-opacity="1" fill-rule="nonzero"/><path fill="#0c0d09" d="M 64.621094 88.949219 C 64.332031 88.582031 64.003906 88.53125 63.710938 88.429688 C 62.078125 87.84375 60.382812 87.59375 58.660156 87.472656 C 57.605469 87.402344 56.566406 87.480469 55.546875 87.800781 C 53.75 88.371094 52.808594 87.265625 52.523438 85.941406 C 52.390625 85.335938 52.339844 84.722656 52.417969 84.121094 C 52.753906 81.46875 53.570312 79.054688 55.96875 77.503906 C 56.1875 77.363281 56.414062 77.230469 56.652344 77.113281 C 56.785156 77.050781 56.953125 77.046875 57.050781 77.175781 C 57.179688 77.34375 57.113281 77.507812 56.984375 77.648438 C 56.90625 77.730469 56.808594 77.800781 56.71875 77.875 C 54.90625 79.34375 54.074219 81.304688 53.882812 83.574219 C 53.824219 84.238281 53.765625 84.914062 53.914062 85.578125 C 54.121094 86.480469 54.480469 86.730469 55.40625 86.589844 C 58.285156 86.152344 61.09375 86.496094 63.855469 87.363281 C 64.550781 87.582031 65.21875 87.882812 65.8125 88.3125 C 66.308594 88.671875 66.472656 89.035156 66.328125 89.414062 C 66.152344 89.875 65.777344 90.066406 65.304688 90.097656 C 64.28125 90.167969 63.335938 89.929688 62.46875 89.386719 C 62.253906 89.25 61.957031 89.082031 62.089844 88.785156 C 62.207031 88.523438 62.503906 88.664062 62.71875 88.71875 C 63.3125 88.863281 63.890625 89.066406 64.621094 88.949219 Z M 64.621094 88.949219 " fill-opacity="1" fill-rule="nonzero"/><path fill="#0c0d09" d="M 76.730469 88.894531 C 77.359375 89.082031 77.84375 88.914062 78.34375 88.789062 C 78.628906 88.71875 79.03125 88.445312 79.195312 88.824219 C 79.351562 89.179688 78.925781 89.367188 78.664062 89.507812 C 77.828125 89.957031 76.929688 90.171875 75.972656 90.09375 C 75.535156 90.0625 75.179688 89.898438 75.027344 89.453125 C 74.886719 89.042969 75.03125 88.664062 75.476562 88.324219 C 75.898438 88.011719 76.363281 87.769531 76.859375 87.585938 C 78.894531 86.820312 81.015625 86.480469 83.175781 86.382812 C 84.136719 86.339844 85.089844 86.523438 86.042969 86.609375 C 86.859375 86.683594 87.132812 86.511719 87.382812 85.71875 C 87.722656 84.640625 87.472656 83.566406 87.292969 82.519531 C 86.972656 80.632812 86.105469 79.007812 84.546875 77.816406 C 84.433594 77.730469 84.335938 77.617188 84.25 77.5 C 84.175781 77.40625 84.15625 77.28125 84.234375 77.175781 C 84.308594 77.066406 84.433594 77.046875 84.546875 77.082031 C 84.710938 77.136719 84.875 77.207031 85.023438 77.289062 C 86.34375 78.019531 87.316406 79.070312 87.925781 80.445312 C 88.472656 81.675781 88.835938 82.960938 88.953125 84.308594 C 89.019531 85.082031 88.882812 85.824219 88.613281 86.535156 C 88.199219 87.648438 87.246094 88.199219 86.109375 87.871094 C 83.265625 87.046875 80.519531 87.601562 77.777344 88.359375 C 77.445312 88.453125 77.097656 88.53125 76.730469 88.894531 Z M 76.730469 88.894531 " fill-opacity="1" fill-rule="nonzero"/><path fill="#0c0d09" d="M 37.476562 55.402344 C 40.117188 55.640625 42.703125 55.164062 45.296875 54.792969 C 46.421875 54.636719 47.546875 54.472656 48.65625 54.222656 C 48.9375 54.160156 49.234375 54.148438 49.523438 54.121094 C 49.640625 54.113281 49.765625 54.136719 49.8125 54.265625 C 49.859375 54.390625 49.800781 54.503906 49.699219 54.5625 C 49.425781 54.730469 49.148438 54.894531 48.859375 55.027344 C 46.585938 56.039062 44.1875 56.625 41.746094 57.09375 C 39.089844 57.601562 36.476562 57.410156 33.855469 56.875 C 33.488281 56.796875 33.113281 56.714844 32.792969 56.496094 C 32.574219 56.34375 32.371094 56.15625 32.441406 55.851562 C 32.5 55.589844 32.722656 55.480469 32.949219 55.429688 C 33.347656 55.339844 33.753906 55.257812 34.164062 55.304688 C 35.261719 55.417969 36.375 55.359375 37.476562 55.402344 Z M 37.476562 55.402344 " fill-opacity="1" fill-rule="nonzero"/><path fill="#0c0d09" d="M 102.851562 57.414062 C 100.449219 57.359375 98.117188 56.882812 95.820312 56.230469 C 94.53125 55.863281 93.269531 55.417969 92.054688 54.839844 C 91.800781 54.71875 91.390625 54.617188 91.46875 54.296875 C 91.558594 53.917969 91.964844 54.101562 92.222656 54.152344 C 94.621094 54.636719 97.042969 54.925781 99.460938 55.28125 C 100.242188 55.398438 101.027344 55.433594 101.808594 55.429688 C 103.582031 55.421875 105.359375 55.441406 107.128906 55.289062 C 107.566406 55.25 108 55.328125 108.425781 55.425781 C 108.660156 55.480469 108.859375 55.617188 108.894531 55.882812 C 108.929688 56.144531 108.773438 56.324219 108.578125 56.464844 C 108.339844 56.640625 108.066406 56.75 107.78125 56.804688 C 106.152344 57.109375 104.523438 57.429688 102.851562 57.414062 Z M 102.851562 57.414062 " fill-opacity="1" fill-rule="nonzero"/><path fill="#0c0d09" d="M 33.078125 133.285156 C 32.261719 133.265625 31.605469 132.558594 31.636719 131.726562 C 31.664062 130.972656 32.398438 130.285156 33.144531 130.308594 C 33.921875 130.335938 34.609375 131.097656 34.582031 131.894531 C 34.550781 132.695312 33.894531 133.300781 33.078125 133.285156 Z M 33.078125 133.285156 " fill-opacity="1" fill-rule="nonzero"/><path fill="#0c0d09" d="M 109.652344 131.808594 C 109.65625 132.636719 109.066406 133.261719 108.261719 133.285156 C 107.410156 133.308594 106.78125 132.675781 106.792969 131.808594 C 106.800781 130.953125 107.457031 130.296875 108.277344 130.316406 C 109.089844 130.339844 109.652344 130.949219 109.652344 131.808594 Z M 109.652344 131.808594 " fill-opacity="1" fill-rule="nonzero"/><path fill="#0c0d09" d="M 71.832031 7.609375 C 71.816406 8.25 71.285156 8.746094 70.632812 8.738281 C 69.992188 8.722656 69.511719 8.199219 69.535156 7.53125 C 69.554688 6.84375 70.035156 6.390625 70.710938 6.410156 C 71.359375 6.429688 71.847656 6.953125 71.832031 7.609375 Z M 71.832031 7.609375 " fill-opacity="1" fill-rule="nonzero"/><path fill="#0c0d09" d="M 112.804688 129.257812 C 112.132812 129.253906 111.636719 128.804688 111.644531 128.214844 C 111.652344 127.640625 112.269531 127.113281 112.90625 127.140625 C 113.5 127.164062 113.96875 127.640625 113.957031 128.203125 C 113.949219 128.804688 113.445312 129.261719 112.804688 129.257812 Z M 112.804688 129.257812 " fill-opacity="1" fill-rule="nonzero"/><g clip-path="url(#d1fa49b209)"><path fill="#0c0d09" d="M 1.269531 60.511719 C 1.875 60.488281 2.386719 60.984375 2.398438 61.597656 C 2.40625 62.199219 1.921875 62.726562 1.328125 62.765625 C 0.746094 62.800781 0.21875 62.296875 0.199219 61.679688 C 0.179688 61.105469 0.707031 60.535156 1.269531 60.511719 Z M 1.269531 60.511719 " fill-opacity="1" fill-rule="nonzero"/></g><g clip-path="url(#b237442b6d)"><path fill="#0c0d09" d="M 141.117188 61.695312 C 141.105469 62.28125 140.632812 62.769531 140.082031 62.765625 C 139.476562 62.761719 138.917969 62.183594 138.921875 61.578125 C 138.929688 61.027344 139.433594 60.519531 139.984375 60.511719 C 140.613281 60.503906 141.125 61.039062 141.117188 61.695312 Z M 141.117188 61.695312 " fill-opacity="1" fill-rule="nonzero"/></g><path fill="#0c0d09" d="M 28.546875 129.257812 C 27.882812 129.261719 27.417969 128.835938 27.40625 128.21875 C 27.394531 127.601562 27.890625 127.113281 28.503906 127.132812 C 29.078125 127.148438 29.652344 127.671875 29.683594 128.203125 C 29.710938 128.769531 29.1875 129.253906 28.546875 129.257812 Z M 28.546875 129.257812 " fill-opacity="1" fill-rule="nonzero"/><g clip-path="url(#95b9f0aaa2)"><path fill="#0c0d09" d="M 70.640625 0.476562 C 71.25 0.476562 71.636719 0.785156 71.652344 1.292969 C 71.675781 1.867188 71.28125 2.265625 70.6875 2.269531 C 70.085938 2.273438 69.695312 1.90625 69.6875 1.328125 C 69.679688 0.777344 70.015625 0.476562 70.640625 0.476562 Z M 70.640625 0.476562 " fill-opacity="1" fill-rule="nonzero"/></g><path fill="#0c0d09" d="M 2.226562 69.617188 C 2.234375 69.136719 2.644531 68.496094 2.980469 68.449219 C 3.359375 68.394531 3.742188 68.875 3.820312 69.5 C 3.824219 69.527344 3.828125 69.554688 3.828125 69.585938 C 3.875 70.203125 3.574219 70.683594 3.125 70.707031 C 2.660156 70.730469 2.222656 70.199219 2.226562 69.617188 Z M 2.226562 69.617188 " fill-opacity="1" fill-rule="nonzero"/><path fill="#0c0d09" d="M 137.46875 69.71875 C 137.480469 69.664062 137.488281 69.578125 137.5 69.492188 C 137.601562 68.902344 137.925781 68.464844 138.265625 68.460938 C 138.582031 68.457031 138.992188 68.953125 139.097656 69.460938 C 139.1875 69.917969 138.867188 70.511719 138.445312 70.652344 C 137.960938 70.820312 137.484375 70.378906 137.46875 69.71875 Z M 137.46875 69.71875 " fill-opacity="1" fill-rule="nonzero"/><path fill="#0c0d09" d="M 135.332031 77.191406 C 134.84375 77.183594 134.457031 76.78125 134.453125 76.285156 C 134.449219 75.804688 134.796875 75.433594 135.257812 75.433594 C 135.71875 75.433594 136.296875 75.945312 136.277344 76.339844 C 136.261719 76.78125 135.800781 77.199219 135.332031 77.191406 Z M 135.332031 77.191406 " fill-opacity="1" fill-rule="nonzero"/><path fill="#0c0d09" d="M 6.09375 75.457031 C 6.535156 75.464844 6.929688 75.878906 6.914062 76.308594 C 6.898438 76.820312 6.441406 77.214844 5.910156 77.191406 C 5.453125 77.167969 5.042969 76.773438 5.058594 76.363281 C 5.070312 75.960938 5.65625 75.449219 6.09375 75.457031 Z M 6.09375 75.457031 " fill-opacity="1" fill-rule="nonzero"/><path fill="#0c0d09" d="M 37.636719 135.320312 C 37.203125 135.320312 36.804688 134.933594 36.792969 134.503906 C 36.785156 134.082031 37.175781 133.683594 37.621094 133.671875 C 38.078125 133.65625 38.433594 134.011719 38.433594 134.484375 C 38.433594 134.972656 38.09375 135.324219 37.636719 135.320312 Z M 37.636719 135.320312 " fill-opacity="1" fill-rule="nonzero"/><path fill="#0c0d09" d="M 102.855469 134.519531 C 102.832031 134.101562 103.25 133.660156 103.671875 133.65625 C 104.09375 133.652344 104.515625 134.074219 104.515625 134.5 C 104.515625 134.910156 104.164062 135.28125 103.75 135.308594 C 103.328125 135.335938 102.878906 134.941406 102.855469 134.519531 Z M 102.855469 134.519531 " fill-opacity="1" fill-rule="nonzero"/><g clip-path="url(#1317d75780)"><path fill="#0c0d09" d="M 80.171875 176.785156 C 80.171875 180.128906 77.460938 182.839844 74.117188 182.839844 C 70.773438 182.839844 68.066406 180.128906 68.066406 176.785156 C 68.066406 173.441406 70.773438 170.734375 74.117188 170.734375 C 77.460938 170.734375 80.171875 173.441406 80.171875 176.785156 " fill-opacity="1" fill-rule="nonzero"/></g><g clip-path="url(#1cf08d9acb)"><path fill="#0c0d09" d="M 26.308594 170.734375 C 25.757812 170.734375 25.226562 170.804688 24.71875 170.945312 C 27.289062 171.644531 29.179688 173.992188 29.179688 176.785156 C 29.179688 179.578125 27.289062 181.929688 24.71875 182.628906 C 25.226562 182.765625 25.757812 182.839844 26.308594 182.839844 C 29.652344 182.839844 32.363281 180.128906 32.363281 176.785156 C 32.363281 173.441406 29.652344 170.734375 26.308594 170.734375 " fill-opacity="1" fill-rule="nonzero"/></g><g clip-path="url(#c0b789d4bc)"><path fill="#0c0d09" d="M 40.691406 170.734375 C 39.777344 170.734375 38.914062 170.933594 38.136719 171.296875 C 40.203125 172.261719 41.636719 174.355469 41.636719 176.785156 C 41.636719 179.214844 40.203125 181.3125 38.136719 182.273438 C 38.914062 182.636719 39.777344 182.839844 40.691406 182.839844 C 44.035156 182.839844 46.746094 180.128906 46.746094 176.785156 C 46.746094 173.441406 44.035156 170.734375 40.691406 170.734375 " fill-opacity="1" fill-rule="nonzero"/></g><g clip-path="url(#f69ba3ce65)"><path fill="#0c0d09" d="M 56.234375 170.734375 C 54.835938 170.734375 53.546875 171.207031 52.519531 172.007812 C 53.945312 173.113281 54.859375 174.84375 54.859375 176.785156 C 54.859375 178.730469 53.945312 180.457031 52.519531 181.566406 C 53.546875 182.363281 54.835938 182.839844 56.234375 182.839844 C 59.578125 182.839844 62.289062 180.128906 62.289062 176.785156 C 62.289062 173.441406 59.578125 170.734375 56.234375 170.734375 " fill-opacity="1" fill-rule="nonzero"/></g><g clip-path="url(#42d9e19518)"><path fill="#0c0d09" d="M 121.925781 170.734375 C 122.480469 170.734375 123.011719 170.804688 123.519531 170.945312 C 120.949219 171.644531 119.054688 173.992188 119.054688 176.785156 C 119.054688 179.578125 120.949219 181.929688 123.519531 182.628906 C 123.011719 182.765625 122.480469 182.839844 121.925781 182.839844 C 118.585938 182.839844 115.875 180.128906 115.875 176.785156 C 115.875 173.441406 118.585938 170.734375 121.925781 170.734375 " fill-opacity="1" fill-rule="nonzero"/></g><g clip-path="url(#ebc334441b)"><path fill="#0c0d09" d="M 107.542969 170.734375 C 108.457031 170.734375 109.324219 170.933594 110.097656 171.296875 C 108.03125 172.261719 106.601562 174.355469 106.601562 176.785156 C 106.601562 179.214844 108.03125 181.3125 110.097656 182.273438 C 109.324219 182.636719 108.457031 182.839844 107.542969 182.839844 C 104.203125 182.839844 101.492188 180.128906 101.492188 176.785156 C 101.492188 173.441406 104.203125 170.734375 107.542969 170.734375 " fill-opacity="1" fill-rule="nonzero"/></g><g clip-path="url(#d2a2d4b3c2)"><path fill="#0c0d09" d="M 92 170.734375 C 93.402344 170.734375 94.691406 171.207031 95.714844 172.007812 C 94.292969 173.113281 93.378906 174.84375 93.378906 176.785156 C 93.378906 178.730469 94.292969 180.457031 95.714844 181.566406 C 94.691406 182.363281 93.402344 182.839844 92 182.839844 C 88.65625 182.839844 85.945312 180.128906 85.945312 176.785156 C 85.945312 173.441406 88.65625 170.734375 92 170.734375 " fill-opacity="1" fill-rule="nonzero"/></g></svg>